%TF.GenerationSoftware,KiCad,Pcbnew,9.0.7*%
%TF.CreationDate,2026-03-20T19:26:41+01:00*%
%TF.ProjectId,PCB_MiSE,5043425f-4d69-4534-952e-6b696361645f,rev?*%
%TF.SameCoordinates,Original*%
%TF.FileFunction,Legend,Top*%
%TF.FilePolarity,Positive*%
%FSLAX46Y46*%
G04 Gerber Fmt 4.6, Leading zero omitted, Abs format (unit mm)*
G04 Created by KiCad (PCBNEW 9.0.7) date 2026-03-20 19:26:41*
%MOMM*%
%LPD*%
G01*
G04 APERTURE LIST*
%ADD10C,0.200000*%
%ADD11C,0.150000*%
%ADD12C,0.254000*%
%ADD13C,0.120000*%
%ADD14C,0.100000*%
%ADD15C,0.250000*%
G04 APERTURE END LIST*
D10*
X110465785Y-108459525D02*
X111113404Y-108459525D01*
X111113404Y-108459525D02*
X111189594Y-108421430D01*
X111189594Y-108421430D02*
X111227690Y-108383335D01*
X111227690Y-108383335D02*
X111265785Y-108307144D01*
X111265785Y-108307144D02*
X111265785Y-108154763D01*
X111265785Y-108154763D02*
X111227690Y-108078573D01*
X111227690Y-108078573D02*
X111189594Y-108040478D01*
X111189594Y-108040478D02*
X111113404Y-108002382D01*
X111113404Y-108002382D02*
X110465785Y-108002382D01*
X110732451Y-107621430D02*
X111265785Y-107621430D01*
X110808642Y-107621430D02*
X110770547Y-107583335D01*
X110770547Y-107583335D02*
X110732451Y-107507145D01*
X110732451Y-107507145D02*
X110732451Y-107392859D01*
X110732451Y-107392859D02*
X110770547Y-107316668D01*
X110770547Y-107316668D02*
X110846737Y-107278573D01*
X110846737Y-107278573D02*
X111265785Y-107278573D01*
X111265785Y-106897620D02*
X110732451Y-106897620D01*
X110465785Y-106897620D02*
X110503880Y-106935716D01*
X110503880Y-106935716D02*
X110541975Y-106897620D01*
X110541975Y-106897620D02*
X110503880Y-106859525D01*
X110503880Y-106859525D02*
X110465785Y-106897620D01*
X110465785Y-106897620D02*
X110541975Y-106897620D01*
X110732451Y-106592859D02*
X111265785Y-106402383D01*
X111265785Y-106402383D02*
X110732451Y-106211906D01*
X111227690Y-105602382D02*
X111265785Y-105678573D01*
X111265785Y-105678573D02*
X111265785Y-105830954D01*
X111265785Y-105830954D02*
X111227690Y-105907144D01*
X111227690Y-105907144D02*
X111151499Y-105945240D01*
X111151499Y-105945240D02*
X110846737Y-105945240D01*
X110846737Y-105945240D02*
X110770547Y-105907144D01*
X110770547Y-105907144D02*
X110732451Y-105830954D01*
X110732451Y-105830954D02*
X110732451Y-105678573D01*
X110732451Y-105678573D02*
X110770547Y-105602382D01*
X110770547Y-105602382D02*
X110846737Y-105564287D01*
X110846737Y-105564287D02*
X110922928Y-105564287D01*
X110922928Y-105564287D02*
X110999118Y-105945240D01*
X111265785Y-105221430D02*
X110732451Y-105221430D01*
X110884832Y-105221430D02*
X110808642Y-105183335D01*
X110808642Y-105183335D02*
X110770547Y-105145240D01*
X110770547Y-105145240D02*
X110732451Y-105069049D01*
X110732451Y-105069049D02*
X110732451Y-104992859D01*
X111227690Y-104764288D02*
X111265785Y-104688097D01*
X111265785Y-104688097D02*
X111265785Y-104535716D01*
X111265785Y-104535716D02*
X111227690Y-104459526D01*
X111227690Y-104459526D02*
X111151499Y-104421430D01*
X111151499Y-104421430D02*
X111113404Y-104421430D01*
X111113404Y-104421430D02*
X111037213Y-104459526D01*
X111037213Y-104459526D02*
X110999118Y-104535716D01*
X110999118Y-104535716D02*
X110999118Y-104650002D01*
X110999118Y-104650002D02*
X110961023Y-104726192D01*
X110961023Y-104726192D02*
X110884832Y-104764288D01*
X110884832Y-104764288D02*
X110846737Y-104764288D01*
X110846737Y-104764288D02*
X110770547Y-104726192D01*
X110770547Y-104726192D02*
X110732451Y-104650002D01*
X110732451Y-104650002D02*
X110732451Y-104535716D01*
X110732451Y-104535716D02*
X110770547Y-104459526D01*
X111265785Y-104078573D02*
X110732451Y-104078573D01*
X110465785Y-104078573D02*
X110503880Y-104116669D01*
X110503880Y-104116669D02*
X110541975Y-104078573D01*
X110541975Y-104078573D02*
X110503880Y-104040478D01*
X110503880Y-104040478D02*
X110465785Y-104078573D01*
X110465785Y-104078573D02*
X110541975Y-104078573D01*
X111265785Y-103354764D02*
X110465785Y-103354764D01*
X111227690Y-103354764D02*
X111265785Y-103430955D01*
X111265785Y-103430955D02*
X111265785Y-103583336D01*
X111265785Y-103583336D02*
X111227690Y-103659526D01*
X111227690Y-103659526D02*
X111189594Y-103697621D01*
X111189594Y-103697621D02*
X111113404Y-103735717D01*
X111113404Y-103735717D02*
X110884832Y-103735717D01*
X110884832Y-103735717D02*
X110808642Y-103697621D01*
X110808642Y-103697621D02*
X110770547Y-103659526D01*
X110770547Y-103659526D02*
X110732451Y-103583336D01*
X110732451Y-103583336D02*
X110732451Y-103430955D01*
X110732451Y-103430955D02*
X110770547Y-103354764D01*
X111265785Y-102630954D02*
X110846737Y-102630954D01*
X110846737Y-102630954D02*
X110770547Y-102669049D01*
X110770547Y-102669049D02*
X110732451Y-102745240D01*
X110732451Y-102745240D02*
X110732451Y-102897621D01*
X110732451Y-102897621D02*
X110770547Y-102973811D01*
X111227690Y-102630954D02*
X111265785Y-102707145D01*
X111265785Y-102707145D02*
X111265785Y-102897621D01*
X111265785Y-102897621D02*
X111227690Y-102973811D01*
X111227690Y-102973811D02*
X111151499Y-103011907D01*
X111151499Y-103011907D02*
X111075309Y-103011907D01*
X111075309Y-103011907D02*
X110999118Y-102973811D01*
X110999118Y-102973811D02*
X110961023Y-102897621D01*
X110961023Y-102897621D02*
X110961023Y-102707145D01*
X110961023Y-102707145D02*
X110922928Y-102630954D01*
X111265785Y-101907144D02*
X110465785Y-101907144D01*
X111227690Y-101907144D02*
X111265785Y-101983335D01*
X111265785Y-101983335D02*
X111265785Y-102135716D01*
X111265785Y-102135716D02*
X111227690Y-102211906D01*
X111227690Y-102211906D02*
X111189594Y-102250001D01*
X111189594Y-102250001D02*
X111113404Y-102288097D01*
X111113404Y-102288097D02*
X110884832Y-102288097D01*
X110884832Y-102288097D02*
X110808642Y-102250001D01*
X110808642Y-102250001D02*
X110770547Y-102211906D01*
X110770547Y-102211906D02*
X110732451Y-102135716D01*
X110732451Y-102135716D02*
X110732451Y-101983335D01*
X110732451Y-101983335D02*
X110770547Y-101907144D01*
X111265785Y-100573810D02*
X110465785Y-100573810D01*
X111227690Y-100573810D02*
X111265785Y-100650001D01*
X111265785Y-100650001D02*
X111265785Y-100802382D01*
X111265785Y-100802382D02*
X111227690Y-100878572D01*
X111227690Y-100878572D02*
X111189594Y-100916667D01*
X111189594Y-100916667D02*
X111113404Y-100954763D01*
X111113404Y-100954763D02*
X110884832Y-100954763D01*
X110884832Y-100954763D02*
X110808642Y-100916667D01*
X110808642Y-100916667D02*
X110770547Y-100878572D01*
X110770547Y-100878572D02*
X110732451Y-100802382D01*
X110732451Y-100802382D02*
X110732451Y-100650001D01*
X110732451Y-100650001D02*
X110770547Y-100573810D01*
X111227690Y-99888095D02*
X111265785Y-99964286D01*
X111265785Y-99964286D02*
X111265785Y-100116667D01*
X111265785Y-100116667D02*
X111227690Y-100192857D01*
X111227690Y-100192857D02*
X111151499Y-100230953D01*
X111151499Y-100230953D02*
X110846737Y-100230953D01*
X110846737Y-100230953D02*
X110770547Y-100192857D01*
X110770547Y-100192857D02*
X110732451Y-100116667D01*
X110732451Y-100116667D02*
X110732451Y-99964286D01*
X110732451Y-99964286D02*
X110770547Y-99888095D01*
X110770547Y-99888095D02*
X110846737Y-99850000D01*
X110846737Y-99850000D02*
X110922928Y-99850000D01*
X110922928Y-99850000D02*
X110999118Y-100230953D01*
X110846737Y-98630953D02*
X110884832Y-98516667D01*
X110884832Y-98516667D02*
X110922928Y-98478572D01*
X110922928Y-98478572D02*
X110999118Y-98440476D01*
X110999118Y-98440476D02*
X111113404Y-98440476D01*
X111113404Y-98440476D02*
X111189594Y-98478572D01*
X111189594Y-98478572D02*
X111227690Y-98516667D01*
X111227690Y-98516667D02*
X111265785Y-98592857D01*
X111265785Y-98592857D02*
X111265785Y-98897619D01*
X111265785Y-98897619D02*
X110465785Y-98897619D01*
X110465785Y-98897619D02*
X110465785Y-98630953D01*
X110465785Y-98630953D02*
X110503880Y-98554762D01*
X110503880Y-98554762D02*
X110541975Y-98516667D01*
X110541975Y-98516667D02*
X110618166Y-98478572D01*
X110618166Y-98478572D02*
X110694356Y-98478572D01*
X110694356Y-98478572D02*
X110770547Y-98516667D01*
X110770547Y-98516667D02*
X110808642Y-98554762D01*
X110808642Y-98554762D02*
X110846737Y-98630953D01*
X110846737Y-98630953D02*
X110846737Y-98897619D01*
X111265785Y-97754762D02*
X110846737Y-97754762D01*
X110846737Y-97754762D02*
X110770547Y-97792857D01*
X110770547Y-97792857D02*
X110732451Y-97869048D01*
X110732451Y-97869048D02*
X110732451Y-98021429D01*
X110732451Y-98021429D02*
X110770547Y-98097619D01*
X111227690Y-97754762D02*
X111265785Y-97830953D01*
X111265785Y-97830953D02*
X111265785Y-98021429D01*
X111265785Y-98021429D02*
X111227690Y-98097619D01*
X111227690Y-98097619D02*
X111151499Y-98135715D01*
X111151499Y-98135715D02*
X111075309Y-98135715D01*
X111075309Y-98135715D02*
X110999118Y-98097619D01*
X110999118Y-98097619D02*
X110961023Y-98021429D01*
X110961023Y-98021429D02*
X110961023Y-97830953D01*
X110961023Y-97830953D02*
X110922928Y-97754762D01*
X111265785Y-97373809D02*
X110732451Y-97373809D01*
X110884832Y-97373809D02*
X110808642Y-97335714D01*
X110808642Y-97335714D02*
X110770547Y-97297619D01*
X110770547Y-97297619D02*
X110732451Y-97221428D01*
X110732451Y-97221428D02*
X110732451Y-97145238D01*
X111227690Y-96535714D02*
X111265785Y-96611905D01*
X111265785Y-96611905D02*
X111265785Y-96764286D01*
X111265785Y-96764286D02*
X111227690Y-96840476D01*
X111227690Y-96840476D02*
X111189594Y-96878571D01*
X111189594Y-96878571D02*
X111113404Y-96916667D01*
X111113404Y-96916667D02*
X110884832Y-96916667D01*
X110884832Y-96916667D02*
X110808642Y-96878571D01*
X110808642Y-96878571D02*
X110770547Y-96840476D01*
X110770547Y-96840476D02*
X110732451Y-96764286D01*
X110732451Y-96764286D02*
X110732451Y-96611905D01*
X110732451Y-96611905D02*
X110770547Y-96535714D01*
X111227690Y-95888095D02*
X111265785Y-95964286D01*
X111265785Y-95964286D02*
X111265785Y-96116667D01*
X111265785Y-96116667D02*
X111227690Y-96192857D01*
X111227690Y-96192857D02*
X111151499Y-96230953D01*
X111151499Y-96230953D02*
X110846737Y-96230953D01*
X110846737Y-96230953D02*
X110770547Y-96192857D01*
X110770547Y-96192857D02*
X110732451Y-96116667D01*
X110732451Y-96116667D02*
X110732451Y-95964286D01*
X110732451Y-95964286D02*
X110770547Y-95888095D01*
X110770547Y-95888095D02*
X110846737Y-95850000D01*
X110846737Y-95850000D02*
X110922928Y-95850000D01*
X110922928Y-95850000D02*
X110999118Y-96230953D01*
X111265785Y-95392858D02*
X111227690Y-95469048D01*
X111227690Y-95469048D02*
X111151499Y-95507143D01*
X111151499Y-95507143D02*
X110465785Y-95507143D01*
X111265785Y-94973810D02*
X111227690Y-95050000D01*
X111227690Y-95050000D02*
X111189594Y-95088095D01*
X111189594Y-95088095D02*
X111113404Y-95126191D01*
X111113404Y-95126191D02*
X110884832Y-95126191D01*
X110884832Y-95126191D02*
X110808642Y-95088095D01*
X110808642Y-95088095D02*
X110770547Y-95050000D01*
X110770547Y-95050000D02*
X110732451Y-94973810D01*
X110732451Y-94973810D02*
X110732451Y-94859524D01*
X110732451Y-94859524D02*
X110770547Y-94783333D01*
X110770547Y-94783333D02*
X110808642Y-94745238D01*
X110808642Y-94745238D02*
X110884832Y-94707143D01*
X110884832Y-94707143D02*
X111113404Y-94707143D01*
X111113404Y-94707143D02*
X111189594Y-94745238D01*
X111189594Y-94745238D02*
X111227690Y-94783333D01*
X111227690Y-94783333D02*
X111265785Y-94859524D01*
X111265785Y-94859524D02*
X111265785Y-94973810D01*
X110732451Y-94364285D02*
X111265785Y-94364285D01*
X110808642Y-94364285D02*
X110770547Y-94326190D01*
X110770547Y-94326190D02*
X110732451Y-94250000D01*
X110732451Y-94250000D02*
X110732451Y-94135714D01*
X110732451Y-94135714D02*
X110770547Y-94059523D01*
X110770547Y-94059523D02*
X110846737Y-94021428D01*
X110846737Y-94021428D02*
X111265785Y-94021428D01*
X111265785Y-93297618D02*
X110846737Y-93297618D01*
X110846737Y-93297618D02*
X110770547Y-93335713D01*
X110770547Y-93335713D02*
X110732451Y-93411904D01*
X110732451Y-93411904D02*
X110732451Y-93564285D01*
X110732451Y-93564285D02*
X110770547Y-93640475D01*
X111227690Y-93297618D02*
X111265785Y-93373809D01*
X111265785Y-93373809D02*
X111265785Y-93564285D01*
X111265785Y-93564285D02*
X111227690Y-93640475D01*
X111227690Y-93640475D02*
X111151499Y-93678571D01*
X111151499Y-93678571D02*
X111075309Y-93678571D01*
X111075309Y-93678571D02*
X110999118Y-93640475D01*
X110999118Y-93640475D02*
X110961023Y-93564285D01*
X110961023Y-93564285D02*
X110961023Y-93373809D01*
X110961023Y-93373809D02*
X110922928Y-93297618D01*
X110961023Y-92307141D02*
X110961023Y-91697618D01*
X110541975Y-90745237D02*
X110503880Y-90707141D01*
X110503880Y-90707141D02*
X110465785Y-90630951D01*
X110465785Y-90630951D02*
X110465785Y-90440475D01*
X110465785Y-90440475D02*
X110503880Y-90364284D01*
X110503880Y-90364284D02*
X110541975Y-90326189D01*
X110541975Y-90326189D02*
X110618166Y-90288094D01*
X110618166Y-90288094D02*
X110694356Y-90288094D01*
X110694356Y-90288094D02*
X110808642Y-90326189D01*
X110808642Y-90326189D02*
X111265785Y-90783332D01*
X111265785Y-90783332D02*
X111265785Y-90288094D01*
X110465785Y-89792855D02*
X110465785Y-89716665D01*
X110465785Y-89716665D02*
X110503880Y-89640474D01*
X110503880Y-89640474D02*
X110541975Y-89602379D01*
X110541975Y-89602379D02*
X110618166Y-89564284D01*
X110618166Y-89564284D02*
X110770547Y-89526189D01*
X110770547Y-89526189D02*
X110961023Y-89526189D01*
X110961023Y-89526189D02*
X111113404Y-89564284D01*
X111113404Y-89564284D02*
X111189594Y-89602379D01*
X111189594Y-89602379D02*
X111227690Y-89640474D01*
X111227690Y-89640474D02*
X111265785Y-89716665D01*
X111265785Y-89716665D02*
X111265785Y-89792855D01*
X111265785Y-89792855D02*
X111227690Y-89869046D01*
X111227690Y-89869046D02*
X111189594Y-89907141D01*
X111189594Y-89907141D02*
X111113404Y-89945236D01*
X111113404Y-89945236D02*
X110961023Y-89983332D01*
X110961023Y-89983332D02*
X110770547Y-89983332D01*
X110770547Y-89983332D02*
X110618166Y-89945236D01*
X110618166Y-89945236D02*
X110541975Y-89907141D01*
X110541975Y-89907141D02*
X110503880Y-89869046D01*
X110503880Y-89869046D02*
X110465785Y-89792855D01*
X110541975Y-89221427D02*
X110503880Y-89183331D01*
X110503880Y-89183331D02*
X110465785Y-89107141D01*
X110465785Y-89107141D02*
X110465785Y-88916665D01*
X110465785Y-88916665D02*
X110503880Y-88840474D01*
X110503880Y-88840474D02*
X110541975Y-88802379D01*
X110541975Y-88802379D02*
X110618166Y-88764284D01*
X110618166Y-88764284D02*
X110694356Y-88764284D01*
X110694356Y-88764284D02*
X110808642Y-88802379D01*
X110808642Y-88802379D02*
X111265785Y-89259522D01*
X111265785Y-89259522D02*
X111265785Y-88764284D01*
X110465785Y-88078569D02*
X110465785Y-88230950D01*
X110465785Y-88230950D02*
X110503880Y-88307141D01*
X110503880Y-88307141D02*
X110541975Y-88345236D01*
X110541975Y-88345236D02*
X110656261Y-88421426D01*
X110656261Y-88421426D02*
X110808642Y-88459522D01*
X110808642Y-88459522D02*
X111113404Y-88459522D01*
X111113404Y-88459522D02*
X111189594Y-88421426D01*
X111189594Y-88421426D02*
X111227690Y-88383331D01*
X111227690Y-88383331D02*
X111265785Y-88307141D01*
X111265785Y-88307141D02*
X111265785Y-88154760D01*
X111265785Y-88154760D02*
X111227690Y-88078569D01*
X111227690Y-88078569D02*
X111189594Y-88040474D01*
X111189594Y-88040474D02*
X111113404Y-88002379D01*
X111113404Y-88002379D02*
X110922928Y-88002379D01*
X110922928Y-88002379D02*
X110846737Y-88040474D01*
X110846737Y-88040474D02*
X110808642Y-88078569D01*
X110808642Y-88078569D02*
X110770547Y-88154760D01*
X110770547Y-88154760D02*
X110770547Y-88307141D01*
X110770547Y-88307141D02*
X110808642Y-88383331D01*
X110808642Y-88383331D02*
X110846737Y-88421426D01*
X110846737Y-88421426D02*
X110922928Y-88459522D01*
X112553740Y-103126190D02*
X111753740Y-103126190D01*
X111753740Y-103126190D02*
X112325168Y-102859524D01*
X112325168Y-102859524D02*
X111753740Y-102592857D01*
X111753740Y-102592857D02*
X112553740Y-102592857D01*
X112553740Y-101869047D02*
X112134692Y-101869047D01*
X112134692Y-101869047D02*
X112058502Y-101907142D01*
X112058502Y-101907142D02*
X112020406Y-101983333D01*
X112020406Y-101983333D02*
X112020406Y-102135714D01*
X112020406Y-102135714D02*
X112058502Y-102211904D01*
X112515645Y-101869047D02*
X112553740Y-101945238D01*
X112553740Y-101945238D02*
X112553740Y-102135714D01*
X112553740Y-102135714D02*
X112515645Y-102211904D01*
X112515645Y-102211904D02*
X112439454Y-102250000D01*
X112439454Y-102250000D02*
X112363264Y-102250000D01*
X112363264Y-102250000D02*
X112287073Y-102211904D01*
X112287073Y-102211904D02*
X112248978Y-102135714D01*
X112248978Y-102135714D02*
X112248978Y-101945238D01*
X112248978Y-101945238D02*
X112210883Y-101869047D01*
X112553740Y-101564285D02*
X112020406Y-101145237D01*
X112020406Y-101564285D02*
X112553740Y-101145237D01*
X112553740Y-100230951D02*
X111753740Y-100230951D01*
X111753740Y-100230951D02*
X111753740Y-99926189D01*
X111753740Y-99926189D02*
X111791835Y-99849999D01*
X111791835Y-99849999D02*
X111829930Y-99811904D01*
X111829930Y-99811904D02*
X111906121Y-99773808D01*
X111906121Y-99773808D02*
X112020406Y-99773808D01*
X112020406Y-99773808D02*
X112096597Y-99811904D01*
X112096597Y-99811904D02*
X112134692Y-99849999D01*
X112134692Y-99849999D02*
X112172787Y-99926189D01*
X112172787Y-99926189D02*
X112172787Y-100230951D01*
X112515645Y-99126189D02*
X112553740Y-99202380D01*
X112553740Y-99202380D02*
X112553740Y-99354761D01*
X112553740Y-99354761D02*
X112515645Y-99430951D01*
X112515645Y-99430951D02*
X112439454Y-99469047D01*
X112439454Y-99469047D02*
X112134692Y-99469047D01*
X112134692Y-99469047D02*
X112058502Y-99430951D01*
X112058502Y-99430951D02*
X112020406Y-99354761D01*
X112020406Y-99354761D02*
X112020406Y-99202380D01*
X112020406Y-99202380D02*
X112058502Y-99126189D01*
X112058502Y-99126189D02*
X112134692Y-99088094D01*
X112134692Y-99088094D02*
X112210883Y-99088094D01*
X112210883Y-99088094D02*
X112287073Y-99469047D01*
X112553740Y-98745237D02*
X112020406Y-98745237D01*
X112172787Y-98745237D02*
X112096597Y-98707142D01*
X112096597Y-98707142D02*
X112058502Y-98669047D01*
X112058502Y-98669047D02*
X112020406Y-98592856D01*
X112020406Y-98592856D02*
X112020406Y-98516666D01*
X112515645Y-97945237D02*
X112553740Y-98021428D01*
X112553740Y-98021428D02*
X112553740Y-98173809D01*
X112553740Y-98173809D02*
X112515645Y-98249999D01*
X112515645Y-98249999D02*
X112439454Y-98288095D01*
X112439454Y-98288095D02*
X112134692Y-98288095D01*
X112134692Y-98288095D02*
X112058502Y-98249999D01*
X112058502Y-98249999D02*
X112020406Y-98173809D01*
X112020406Y-98173809D02*
X112020406Y-98021428D01*
X112020406Y-98021428D02*
X112058502Y-97945237D01*
X112058502Y-97945237D02*
X112134692Y-97907142D01*
X112134692Y-97907142D02*
X112210883Y-97907142D01*
X112210883Y-97907142D02*
X112287073Y-98288095D01*
X112020406Y-97640476D02*
X112020406Y-97221428D01*
X112020406Y-97221428D02*
X112553740Y-97640476D01*
X112553740Y-97640476D02*
X112553740Y-97221428D01*
X112553740Y-96307142D02*
X111753740Y-96307142D01*
X111753740Y-96307142D02*
X111753740Y-96002380D01*
X111753740Y-96002380D02*
X111791835Y-95926190D01*
X111791835Y-95926190D02*
X111829930Y-95888095D01*
X111829930Y-95888095D02*
X111906121Y-95849999D01*
X111906121Y-95849999D02*
X112020406Y-95849999D01*
X112020406Y-95849999D02*
X112096597Y-95888095D01*
X112096597Y-95888095D02*
X112134692Y-95926190D01*
X112134692Y-95926190D02*
X112172787Y-96002380D01*
X112172787Y-96002380D02*
X112172787Y-96307142D01*
X112553740Y-95507142D02*
X112020406Y-95507142D01*
X111753740Y-95507142D02*
X111791835Y-95545238D01*
X111791835Y-95545238D02*
X111829930Y-95507142D01*
X111829930Y-95507142D02*
X111791835Y-95469047D01*
X111791835Y-95469047D02*
X111753740Y-95507142D01*
X111753740Y-95507142D02*
X111829930Y-95507142D01*
X112020406Y-94783333D02*
X112820406Y-94783333D01*
X112515645Y-94783333D02*
X112553740Y-94859524D01*
X112553740Y-94859524D02*
X112553740Y-95011905D01*
X112553740Y-95011905D02*
X112515645Y-95088095D01*
X112515645Y-95088095D02*
X112477549Y-95126190D01*
X112477549Y-95126190D02*
X112401359Y-95164286D01*
X112401359Y-95164286D02*
X112172787Y-95164286D01*
X112172787Y-95164286D02*
X112096597Y-95126190D01*
X112096597Y-95126190D02*
X112058502Y-95088095D01*
X112058502Y-95088095D02*
X112020406Y-95011905D01*
X112020406Y-95011905D02*
X112020406Y-94859524D01*
X112020406Y-94859524D02*
X112058502Y-94783333D01*
X112020406Y-94059523D02*
X112553740Y-94059523D01*
X112020406Y-94402380D02*
X112439454Y-94402380D01*
X112439454Y-94402380D02*
X112515645Y-94364285D01*
X112515645Y-94364285D02*
X112553740Y-94288095D01*
X112553740Y-94288095D02*
X112553740Y-94173809D01*
X112553740Y-94173809D02*
X112515645Y-94097618D01*
X112515645Y-94097618D02*
X112477549Y-94059523D01*
X112515645Y-93373808D02*
X112553740Y-93449999D01*
X112553740Y-93449999D02*
X112553740Y-93602380D01*
X112553740Y-93602380D02*
X112515645Y-93678570D01*
X112515645Y-93678570D02*
X112439454Y-93716666D01*
X112439454Y-93716666D02*
X112134692Y-93716666D01*
X112134692Y-93716666D02*
X112058502Y-93678570D01*
X112058502Y-93678570D02*
X112020406Y-93602380D01*
X112020406Y-93602380D02*
X112020406Y-93449999D01*
X112020406Y-93449999D02*
X112058502Y-93373808D01*
X112058502Y-93373808D02*
X112134692Y-93335713D01*
X112134692Y-93335713D02*
X112210883Y-93335713D01*
X112210883Y-93335713D02*
X112287073Y-93716666D01*
X113841695Y-107469050D02*
X113041695Y-107469050D01*
X113041695Y-107469050D02*
X113613123Y-107202384D01*
X113613123Y-107202384D02*
X113041695Y-106935717D01*
X113041695Y-106935717D02*
X113841695Y-106935717D01*
X113841695Y-106211907D02*
X113422647Y-106211907D01*
X113422647Y-106211907D02*
X113346457Y-106250002D01*
X113346457Y-106250002D02*
X113308361Y-106326193D01*
X113308361Y-106326193D02*
X113308361Y-106478574D01*
X113308361Y-106478574D02*
X113346457Y-106554764D01*
X113803600Y-106211907D02*
X113841695Y-106288098D01*
X113841695Y-106288098D02*
X113841695Y-106478574D01*
X113841695Y-106478574D02*
X113803600Y-106554764D01*
X113803600Y-106554764D02*
X113727409Y-106592860D01*
X113727409Y-106592860D02*
X113651219Y-106592860D01*
X113651219Y-106592860D02*
X113575028Y-106554764D01*
X113575028Y-106554764D02*
X113536933Y-106478574D01*
X113536933Y-106478574D02*
X113536933Y-106288098D01*
X113536933Y-106288098D02*
X113498838Y-106211907D01*
X113308361Y-105830954D02*
X113841695Y-105830954D01*
X113384552Y-105830954D02*
X113346457Y-105792859D01*
X113346457Y-105792859D02*
X113308361Y-105716669D01*
X113308361Y-105716669D02*
X113308361Y-105602383D01*
X113308361Y-105602383D02*
X113346457Y-105526192D01*
X113346457Y-105526192D02*
X113422647Y-105488097D01*
X113422647Y-105488097D02*
X113841695Y-105488097D01*
X113308361Y-104764287D02*
X113841695Y-104764287D01*
X113308361Y-105107144D02*
X113727409Y-105107144D01*
X113727409Y-105107144D02*
X113803600Y-105069049D01*
X113803600Y-105069049D02*
X113841695Y-104992859D01*
X113841695Y-104992859D02*
X113841695Y-104878573D01*
X113841695Y-104878573D02*
X113803600Y-104802382D01*
X113803600Y-104802382D02*
X113765504Y-104764287D01*
X113803600Y-104078572D02*
X113841695Y-104154763D01*
X113841695Y-104154763D02*
X113841695Y-104307144D01*
X113841695Y-104307144D02*
X113803600Y-104383334D01*
X113803600Y-104383334D02*
X113727409Y-104421430D01*
X113727409Y-104421430D02*
X113422647Y-104421430D01*
X113422647Y-104421430D02*
X113346457Y-104383334D01*
X113346457Y-104383334D02*
X113308361Y-104307144D01*
X113308361Y-104307144D02*
X113308361Y-104154763D01*
X113308361Y-104154763D02*
X113346457Y-104078572D01*
X113346457Y-104078572D02*
X113422647Y-104040477D01*
X113422647Y-104040477D02*
X113498838Y-104040477D01*
X113498838Y-104040477D02*
X113575028Y-104421430D01*
X113841695Y-103583335D02*
X113803600Y-103659525D01*
X113803600Y-103659525D02*
X113727409Y-103697620D01*
X113727409Y-103697620D02*
X113041695Y-103697620D01*
X113613123Y-102707144D02*
X113613123Y-102326191D01*
X113841695Y-102783334D02*
X113041695Y-102516667D01*
X113041695Y-102516667D02*
X113841695Y-102250001D01*
X113841695Y-101983334D02*
X113308361Y-101983334D01*
X113460742Y-101983334D02*
X113384552Y-101945239D01*
X113384552Y-101945239D02*
X113346457Y-101907144D01*
X113346457Y-101907144D02*
X113308361Y-101830953D01*
X113308361Y-101830953D02*
X113308361Y-101754763D01*
X113308361Y-101145239D02*
X113955980Y-101145239D01*
X113955980Y-101145239D02*
X114032171Y-101183334D01*
X114032171Y-101183334D02*
X114070266Y-101221430D01*
X114070266Y-101221430D02*
X114108361Y-101297620D01*
X114108361Y-101297620D02*
X114108361Y-101411906D01*
X114108361Y-101411906D02*
X114070266Y-101488096D01*
X113803600Y-101145239D02*
X113841695Y-101221430D01*
X113841695Y-101221430D02*
X113841695Y-101373811D01*
X113841695Y-101373811D02*
X113803600Y-101450001D01*
X113803600Y-101450001D02*
X113765504Y-101488096D01*
X113765504Y-101488096D02*
X113689314Y-101526192D01*
X113689314Y-101526192D02*
X113460742Y-101526192D01*
X113460742Y-101526192D02*
X113384552Y-101488096D01*
X113384552Y-101488096D02*
X113346457Y-101450001D01*
X113346457Y-101450001D02*
X113308361Y-101373811D01*
X113308361Y-101373811D02*
X113308361Y-101221430D01*
X113308361Y-101221430D02*
X113346457Y-101145239D01*
X113841695Y-100764286D02*
X113308361Y-100764286D01*
X113041695Y-100764286D02*
X113079790Y-100802382D01*
X113079790Y-100802382D02*
X113117885Y-100764286D01*
X113117885Y-100764286D02*
X113079790Y-100726191D01*
X113079790Y-100726191D02*
X113041695Y-100764286D01*
X113041695Y-100764286D02*
X113117885Y-100764286D01*
X113841695Y-100383334D02*
X113041695Y-100383334D01*
X113346457Y-100383334D02*
X113308361Y-100307144D01*
X113308361Y-100307144D02*
X113308361Y-100154763D01*
X113308361Y-100154763D02*
X113346457Y-100078572D01*
X113346457Y-100078572D02*
X113384552Y-100040477D01*
X113384552Y-100040477D02*
X113460742Y-100002382D01*
X113460742Y-100002382D02*
X113689314Y-100002382D01*
X113689314Y-100002382D02*
X113765504Y-100040477D01*
X113765504Y-100040477D02*
X113803600Y-100078572D01*
X113803600Y-100078572D02*
X113841695Y-100154763D01*
X113841695Y-100154763D02*
X113841695Y-100307144D01*
X113841695Y-100307144D02*
X113803600Y-100383334D01*
X113841695Y-99316667D02*
X113422647Y-99316667D01*
X113422647Y-99316667D02*
X113346457Y-99354762D01*
X113346457Y-99354762D02*
X113308361Y-99430953D01*
X113308361Y-99430953D02*
X113308361Y-99583334D01*
X113308361Y-99583334D02*
X113346457Y-99659524D01*
X113803600Y-99316667D02*
X113841695Y-99392858D01*
X113841695Y-99392858D02*
X113841695Y-99583334D01*
X113841695Y-99583334D02*
X113803600Y-99659524D01*
X113803600Y-99659524D02*
X113727409Y-99697620D01*
X113727409Y-99697620D02*
X113651219Y-99697620D01*
X113651219Y-99697620D02*
X113575028Y-99659524D01*
X113575028Y-99659524D02*
X113536933Y-99583334D01*
X113536933Y-99583334D02*
X113536933Y-99392858D01*
X113536933Y-99392858D02*
X113498838Y-99316667D01*
X113308361Y-99011905D02*
X113841695Y-98821429D01*
X113308361Y-98630952D02*
X113841695Y-98821429D01*
X113841695Y-98821429D02*
X114032171Y-98897619D01*
X114032171Y-98897619D02*
X114070266Y-98935714D01*
X114070266Y-98935714D02*
X114108361Y-99011905D01*
X113841695Y-97716666D02*
X113041695Y-97716666D01*
X113041695Y-97716666D02*
X113613123Y-97450000D01*
X113613123Y-97450000D02*
X113041695Y-97183333D01*
X113041695Y-97183333D02*
X113841695Y-97183333D01*
X113841695Y-96688095D02*
X113803600Y-96764285D01*
X113803600Y-96764285D02*
X113765504Y-96802380D01*
X113765504Y-96802380D02*
X113689314Y-96840476D01*
X113689314Y-96840476D02*
X113460742Y-96840476D01*
X113460742Y-96840476D02*
X113384552Y-96802380D01*
X113384552Y-96802380D02*
X113346457Y-96764285D01*
X113346457Y-96764285D02*
X113308361Y-96688095D01*
X113308361Y-96688095D02*
X113308361Y-96573809D01*
X113308361Y-96573809D02*
X113346457Y-96497618D01*
X113346457Y-96497618D02*
X113384552Y-96459523D01*
X113384552Y-96459523D02*
X113460742Y-96421428D01*
X113460742Y-96421428D02*
X113689314Y-96421428D01*
X113689314Y-96421428D02*
X113765504Y-96459523D01*
X113765504Y-96459523D02*
X113803600Y-96497618D01*
X113803600Y-96497618D02*
X113841695Y-96573809D01*
X113841695Y-96573809D02*
X113841695Y-96688095D01*
X113841695Y-95964285D02*
X113803600Y-96040475D01*
X113803600Y-96040475D02*
X113727409Y-96078570D01*
X113727409Y-96078570D02*
X113041695Y-96078570D01*
X113841695Y-95659522D02*
X113308361Y-95659522D01*
X113041695Y-95659522D02*
X113079790Y-95697618D01*
X113079790Y-95697618D02*
X113117885Y-95659522D01*
X113117885Y-95659522D02*
X113079790Y-95621427D01*
X113079790Y-95621427D02*
X113041695Y-95659522D01*
X113041695Y-95659522D02*
X113117885Y-95659522D01*
X113308361Y-95278570D02*
X113841695Y-95278570D01*
X113384552Y-95278570D02*
X113346457Y-95240475D01*
X113346457Y-95240475D02*
X113308361Y-95164285D01*
X113308361Y-95164285D02*
X113308361Y-95049999D01*
X113308361Y-95049999D02*
X113346457Y-94973808D01*
X113346457Y-94973808D02*
X113422647Y-94935713D01*
X113422647Y-94935713D02*
X113841695Y-94935713D01*
X113841695Y-94211903D02*
X113422647Y-94211903D01*
X113422647Y-94211903D02*
X113346457Y-94249998D01*
X113346457Y-94249998D02*
X113308361Y-94326189D01*
X113308361Y-94326189D02*
X113308361Y-94478570D01*
X113308361Y-94478570D02*
X113346457Y-94554760D01*
X113803600Y-94211903D02*
X113841695Y-94288094D01*
X113841695Y-94288094D02*
X113841695Y-94478570D01*
X113841695Y-94478570D02*
X113803600Y-94554760D01*
X113803600Y-94554760D02*
X113727409Y-94592856D01*
X113727409Y-94592856D02*
X113651219Y-94592856D01*
X113651219Y-94592856D02*
X113575028Y-94554760D01*
X113575028Y-94554760D02*
X113536933Y-94478570D01*
X113536933Y-94478570D02*
X113536933Y-94288094D01*
X113536933Y-94288094D02*
X113498838Y-94211903D01*
X113765504Y-92764283D02*
X113803600Y-92802379D01*
X113803600Y-92802379D02*
X113841695Y-92916664D01*
X113841695Y-92916664D02*
X113841695Y-92992855D01*
X113841695Y-92992855D02*
X113803600Y-93107141D01*
X113803600Y-93107141D02*
X113727409Y-93183331D01*
X113727409Y-93183331D02*
X113651219Y-93221426D01*
X113651219Y-93221426D02*
X113498838Y-93259522D01*
X113498838Y-93259522D02*
X113384552Y-93259522D01*
X113384552Y-93259522D02*
X113232171Y-93221426D01*
X113232171Y-93221426D02*
X113155980Y-93183331D01*
X113155980Y-93183331D02*
X113079790Y-93107141D01*
X113079790Y-93107141D02*
X113041695Y-92992855D01*
X113041695Y-92992855D02*
X113041695Y-92916664D01*
X113041695Y-92916664D02*
X113079790Y-92802379D01*
X113079790Y-92802379D02*
X113117885Y-92764283D01*
X113841695Y-92421426D02*
X113041695Y-92421426D01*
X113841695Y-92078569D02*
X113422647Y-92078569D01*
X113422647Y-92078569D02*
X113346457Y-92116664D01*
X113346457Y-92116664D02*
X113308361Y-92192855D01*
X113308361Y-92192855D02*
X113308361Y-92307141D01*
X113308361Y-92307141D02*
X113346457Y-92383331D01*
X113346457Y-92383331D02*
X113384552Y-92421426D01*
X113841695Y-91697616D02*
X113308361Y-91697616D01*
X113041695Y-91697616D02*
X113079790Y-91735712D01*
X113079790Y-91735712D02*
X113117885Y-91697616D01*
X113117885Y-91697616D02*
X113079790Y-91659521D01*
X113079790Y-91659521D02*
X113041695Y-91697616D01*
X113041695Y-91697616D02*
X113117885Y-91697616D01*
X113841695Y-91202379D02*
X113803600Y-91278569D01*
X113803600Y-91278569D02*
X113727409Y-91316664D01*
X113727409Y-91316664D02*
X113041695Y-91316664D01*
X113841695Y-90783331D02*
X113803600Y-90859521D01*
X113803600Y-90859521D02*
X113727409Y-90897616D01*
X113727409Y-90897616D02*
X113041695Y-90897616D01*
X113841695Y-90478568D02*
X113308361Y-90478568D01*
X113041695Y-90478568D02*
X113079790Y-90516664D01*
X113079790Y-90516664D02*
X113117885Y-90478568D01*
X113117885Y-90478568D02*
X113079790Y-90440473D01*
X113079790Y-90440473D02*
X113041695Y-90478568D01*
X113041695Y-90478568D02*
X113117885Y-90478568D01*
X113841695Y-89754759D02*
X113041695Y-89754759D01*
X113803600Y-89754759D02*
X113841695Y-89830950D01*
X113841695Y-89830950D02*
X113841695Y-89983331D01*
X113841695Y-89983331D02*
X113803600Y-90059521D01*
X113803600Y-90059521D02*
X113765504Y-90097616D01*
X113765504Y-90097616D02*
X113689314Y-90135712D01*
X113689314Y-90135712D02*
X113460742Y-90135712D01*
X113460742Y-90135712D02*
X113384552Y-90097616D01*
X113384552Y-90097616D02*
X113346457Y-90059521D01*
X113346457Y-90059521D02*
X113308361Y-89983331D01*
X113308361Y-89983331D02*
X113308361Y-89830950D01*
X113308361Y-89830950D02*
X113346457Y-89754759D01*
X113841695Y-89030949D02*
X113422647Y-89030949D01*
X113422647Y-89030949D02*
X113346457Y-89069044D01*
X113346457Y-89069044D02*
X113308361Y-89145235D01*
X113308361Y-89145235D02*
X113308361Y-89297616D01*
X113308361Y-89297616D02*
X113346457Y-89373806D01*
X113803600Y-89030949D02*
X113841695Y-89107140D01*
X113841695Y-89107140D02*
X113841695Y-89297616D01*
X113841695Y-89297616D02*
X113803600Y-89373806D01*
X113803600Y-89373806D02*
X113727409Y-89411902D01*
X113727409Y-89411902D02*
X113651219Y-89411902D01*
X113651219Y-89411902D02*
X113575028Y-89373806D01*
X113575028Y-89373806D02*
X113536933Y-89297616D01*
X113536933Y-89297616D02*
X113536933Y-89107140D01*
X113536933Y-89107140D02*
X113498838Y-89030949D01*
D11*
X60107142Y-80879819D02*
X59773809Y-80403628D01*
X59535714Y-80879819D02*
X59535714Y-79879819D01*
X59535714Y-79879819D02*
X59916666Y-79879819D01*
X59916666Y-79879819D02*
X60011904Y-79927438D01*
X60011904Y-79927438D02*
X60059523Y-79975057D01*
X60059523Y-79975057D02*
X60107142Y-80070295D01*
X60107142Y-80070295D02*
X60107142Y-80213152D01*
X60107142Y-80213152D02*
X60059523Y-80308390D01*
X60059523Y-80308390D02*
X60011904Y-80356009D01*
X60011904Y-80356009D02*
X59916666Y-80403628D01*
X59916666Y-80403628D02*
X59535714Y-80403628D01*
X61059523Y-80879819D02*
X60488095Y-80879819D01*
X60773809Y-80879819D02*
X60773809Y-79879819D01*
X60773809Y-79879819D02*
X60678571Y-80022676D01*
X60678571Y-80022676D02*
X60583333Y-80117914D01*
X60583333Y-80117914D02*
X60488095Y-80165533D01*
X61916666Y-80213152D02*
X61916666Y-80879819D01*
X61678571Y-79832200D02*
X61440476Y-80546485D01*
X61440476Y-80546485D02*
X62059523Y-80546485D01*
X62579819Y-104166666D02*
X62103628Y-104499999D01*
X62579819Y-104738094D02*
X61579819Y-104738094D01*
X61579819Y-104738094D02*
X61579819Y-104357142D01*
X61579819Y-104357142D02*
X61627438Y-104261904D01*
X61627438Y-104261904D02*
X61675057Y-104214285D01*
X61675057Y-104214285D02*
X61770295Y-104166666D01*
X61770295Y-104166666D02*
X61913152Y-104166666D01*
X61913152Y-104166666D02*
X62008390Y-104214285D01*
X62008390Y-104214285D02*
X62056009Y-104261904D01*
X62056009Y-104261904D02*
X62103628Y-104357142D01*
X62103628Y-104357142D02*
X62103628Y-104738094D01*
X61579819Y-103833332D02*
X61579819Y-103166666D01*
X61579819Y-103166666D02*
X62579819Y-103595237D01*
X81870833Y-86384580D02*
X81823214Y-86432200D01*
X81823214Y-86432200D02*
X81680357Y-86479819D01*
X81680357Y-86479819D02*
X81585119Y-86479819D01*
X81585119Y-86479819D02*
X81442262Y-86432200D01*
X81442262Y-86432200D02*
X81347024Y-86336961D01*
X81347024Y-86336961D02*
X81299405Y-86241723D01*
X81299405Y-86241723D02*
X81251786Y-86051247D01*
X81251786Y-86051247D02*
X81251786Y-85908390D01*
X81251786Y-85908390D02*
X81299405Y-85717914D01*
X81299405Y-85717914D02*
X81347024Y-85622676D01*
X81347024Y-85622676D02*
X81442262Y-85527438D01*
X81442262Y-85527438D02*
X81585119Y-85479819D01*
X81585119Y-85479819D02*
X81680357Y-85479819D01*
X81680357Y-85479819D02*
X81823214Y-85527438D01*
X81823214Y-85527438D02*
X81870833Y-85575057D01*
X82727976Y-85813152D02*
X82727976Y-86479819D01*
X82489881Y-85432200D02*
X82251786Y-86146485D01*
X82251786Y-86146485D02*
X82870833Y-86146485D01*
X51904819Y-114116666D02*
X51428628Y-114449999D01*
X51904819Y-114688094D02*
X50904819Y-114688094D01*
X50904819Y-114688094D02*
X50904819Y-114307142D01*
X50904819Y-114307142D02*
X50952438Y-114211904D01*
X50952438Y-114211904D02*
X51000057Y-114164285D01*
X51000057Y-114164285D02*
X51095295Y-114116666D01*
X51095295Y-114116666D02*
X51238152Y-114116666D01*
X51238152Y-114116666D02*
X51333390Y-114164285D01*
X51333390Y-114164285D02*
X51381009Y-114211904D01*
X51381009Y-114211904D02*
X51428628Y-114307142D01*
X51428628Y-114307142D02*
X51428628Y-114688094D01*
X51333390Y-113545237D02*
X51285771Y-113640475D01*
X51285771Y-113640475D02*
X51238152Y-113688094D01*
X51238152Y-113688094D02*
X51142914Y-113735713D01*
X51142914Y-113735713D02*
X51095295Y-113735713D01*
X51095295Y-113735713D02*
X51000057Y-113688094D01*
X51000057Y-113688094D02*
X50952438Y-113640475D01*
X50952438Y-113640475D02*
X50904819Y-113545237D01*
X50904819Y-113545237D02*
X50904819Y-113354761D01*
X50904819Y-113354761D02*
X50952438Y-113259523D01*
X50952438Y-113259523D02*
X51000057Y-113211904D01*
X51000057Y-113211904D02*
X51095295Y-113164285D01*
X51095295Y-113164285D02*
X51142914Y-113164285D01*
X51142914Y-113164285D02*
X51238152Y-113211904D01*
X51238152Y-113211904D02*
X51285771Y-113259523D01*
X51285771Y-113259523D02*
X51333390Y-113354761D01*
X51333390Y-113354761D02*
X51333390Y-113545237D01*
X51333390Y-113545237D02*
X51381009Y-113640475D01*
X51381009Y-113640475D02*
X51428628Y-113688094D01*
X51428628Y-113688094D02*
X51523866Y-113735713D01*
X51523866Y-113735713D02*
X51714342Y-113735713D01*
X51714342Y-113735713D02*
X51809580Y-113688094D01*
X51809580Y-113688094D02*
X51857200Y-113640475D01*
X51857200Y-113640475D02*
X51904819Y-113545237D01*
X51904819Y-113545237D02*
X51904819Y-113354761D01*
X51904819Y-113354761D02*
X51857200Y-113259523D01*
X51857200Y-113259523D02*
X51809580Y-113211904D01*
X51809580Y-113211904D02*
X51714342Y-113164285D01*
X51714342Y-113164285D02*
X51523866Y-113164285D01*
X51523866Y-113164285D02*
X51428628Y-113211904D01*
X51428628Y-113211904D02*
X51381009Y-113259523D01*
X51381009Y-113259523D02*
X51333390Y-113354761D01*
X79359580Y-95929166D02*
X79407200Y-95976785D01*
X79407200Y-95976785D02*
X79454819Y-96119642D01*
X79454819Y-96119642D02*
X79454819Y-96214880D01*
X79454819Y-96214880D02*
X79407200Y-96357737D01*
X79407200Y-96357737D02*
X79311961Y-96452975D01*
X79311961Y-96452975D02*
X79216723Y-96500594D01*
X79216723Y-96500594D02*
X79026247Y-96548213D01*
X79026247Y-96548213D02*
X78883390Y-96548213D01*
X78883390Y-96548213D02*
X78692914Y-96500594D01*
X78692914Y-96500594D02*
X78597676Y-96452975D01*
X78597676Y-96452975D02*
X78502438Y-96357737D01*
X78502438Y-96357737D02*
X78454819Y-96214880D01*
X78454819Y-96214880D02*
X78454819Y-96119642D01*
X78454819Y-96119642D02*
X78502438Y-95976785D01*
X78502438Y-95976785D02*
X78550057Y-95929166D01*
X78454819Y-95595832D02*
X78454819Y-94976785D01*
X78454819Y-94976785D02*
X78835771Y-95310118D01*
X78835771Y-95310118D02*
X78835771Y-95167261D01*
X78835771Y-95167261D02*
X78883390Y-95072023D01*
X78883390Y-95072023D02*
X78931009Y-95024404D01*
X78931009Y-95024404D02*
X79026247Y-94976785D01*
X79026247Y-94976785D02*
X79264342Y-94976785D01*
X79264342Y-94976785D02*
X79359580Y-95024404D01*
X79359580Y-95024404D02*
X79407200Y-95072023D01*
X79407200Y-95072023D02*
X79454819Y-95167261D01*
X79454819Y-95167261D02*
X79454819Y-95452975D01*
X79454819Y-95452975D02*
X79407200Y-95548213D01*
X79407200Y-95548213D02*
X79359580Y-95595832D01*
X112654819Y-63292857D02*
X112178628Y-63626190D01*
X112654819Y-63864285D02*
X111654819Y-63864285D01*
X111654819Y-63864285D02*
X111654819Y-63483333D01*
X111654819Y-63483333D02*
X111702438Y-63388095D01*
X111702438Y-63388095D02*
X111750057Y-63340476D01*
X111750057Y-63340476D02*
X111845295Y-63292857D01*
X111845295Y-63292857D02*
X111988152Y-63292857D01*
X111988152Y-63292857D02*
X112083390Y-63340476D01*
X112083390Y-63340476D02*
X112131009Y-63388095D01*
X112131009Y-63388095D02*
X112178628Y-63483333D01*
X112178628Y-63483333D02*
X112178628Y-63864285D01*
X112654819Y-62340476D02*
X112654819Y-62911904D01*
X112654819Y-62626190D02*
X111654819Y-62626190D01*
X111654819Y-62626190D02*
X111797676Y-62721428D01*
X111797676Y-62721428D02*
X111892914Y-62816666D01*
X111892914Y-62816666D02*
X111940533Y-62911904D01*
X111750057Y-61959523D02*
X111702438Y-61911904D01*
X111702438Y-61911904D02*
X111654819Y-61816666D01*
X111654819Y-61816666D02*
X111654819Y-61578571D01*
X111654819Y-61578571D02*
X111702438Y-61483333D01*
X111702438Y-61483333D02*
X111750057Y-61435714D01*
X111750057Y-61435714D02*
X111845295Y-61388095D01*
X111845295Y-61388095D02*
X111940533Y-61388095D01*
X111940533Y-61388095D02*
X112083390Y-61435714D01*
X112083390Y-61435714D02*
X112654819Y-62007142D01*
X112654819Y-62007142D02*
X112654819Y-61388095D01*
X75333333Y-108742319D02*
X75000000Y-108266128D01*
X74761905Y-108742319D02*
X74761905Y-107742319D01*
X74761905Y-107742319D02*
X75142857Y-107742319D01*
X75142857Y-107742319D02*
X75238095Y-107789938D01*
X75238095Y-107789938D02*
X75285714Y-107837557D01*
X75285714Y-107837557D02*
X75333333Y-107932795D01*
X75333333Y-107932795D02*
X75333333Y-108075652D01*
X75333333Y-108075652D02*
X75285714Y-108170890D01*
X75285714Y-108170890D02*
X75238095Y-108218509D01*
X75238095Y-108218509D02*
X75142857Y-108266128D01*
X75142857Y-108266128D02*
X74761905Y-108266128D01*
X76190476Y-108075652D02*
X76190476Y-108742319D01*
X75952381Y-107694700D02*
X75714286Y-108408985D01*
X75714286Y-108408985D02*
X76333333Y-108408985D01*
X51057142Y-102104819D02*
X50723809Y-101628628D01*
X50485714Y-102104819D02*
X50485714Y-101104819D01*
X50485714Y-101104819D02*
X50866666Y-101104819D01*
X50866666Y-101104819D02*
X50961904Y-101152438D01*
X50961904Y-101152438D02*
X51009523Y-101200057D01*
X51009523Y-101200057D02*
X51057142Y-101295295D01*
X51057142Y-101295295D02*
X51057142Y-101438152D01*
X51057142Y-101438152D02*
X51009523Y-101533390D01*
X51009523Y-101533390D02*
X50961904Y-101581009D01*
X50961904Y-101581009D02*
X50866666Y-101628628D01*
X50866666Y-101628628D02*
X50485714Y-101628628D01*
X52009523Y-102104819D02*
X51438095Y-102104819D01*
X51723809Y-102104819D02*
X51723809Y-101104819D01*
X51723809Y-101104819D02*
X51628571Y-101247676D01*
X51628571Y-101247676D02*
X51533333Y-101342914D01*
X51533333Y-101342914D02*
X51438095Y-101390533D01*
X52628571Y-101104819D02*
X52723809Y-101104819D01*
X52723809Y-101104819D02*
X52819047Y-101152438D01*
X52819047Y-101152438D02*
X52866666Y-101200057D01*
X52866666Y-101200057D02*
X52914285Y-101295295D01*
X52914285Y-101295295D02*
X52961904Y-101485771D01*
X52961904Y-101485771D02*
X52961904Y-101723866D01*
X52961904Y-101723866D02*
X52914285Y-101914342D01*
X52914285Y-101914342D02*
X52866666Y-102009580D01*
X52866666Y-102009580D02*
X52819047Y-102057200D01*
X52819047Y-102057200D02*
X52723809Y-102104819D01*
X52723809Y-102104819D02*
X52628571Y-102104819D01*
X52628571Y-102104819D02*
X52533333Y-102057200D01*
X52533333Y-102057200D02*
X52485714Y-102009580D01*
X52485714Y-102009580D02*
X52438095Y-101914342D01*
X52438095Y-101914342D02*
X52390476Y-101723866D01*
X52390476Y-101723866D02*
X52390476Y-101485771D01*
X52390476Y-101485771D02*
X52438095Y-101295295D01*
X52438095Y-101295295D02*
X52485714Y-101200057D01*
X52485714Y-101200057D02*
X52533333Y-101152438D01*
X52533333Y-101152438D02*
X52628571Y-101104819D01*
X111504819Y-59333333D02*
X112219104Y-59333333D01*
X112219104Y-59333333D02*
X112361961Y-59380952D01*
X112361961Y-59380952D02*
X112457200Y-59476190D01*
X112457200Y-59476190D02*
X112504819Y-59619047D01*
X112504819Y-59619047D02*
X112504819Y-59714285D01*
X111504819Y-58380952D02*
X111504819Y-58857142D01*
X111504819Y-58857142D02*
X111981009Y-58904761D01*
X111981009Y-58904761D02*
X111933390Y-58857142D01*
X111933390Y-58857142D02*
X111885771Y-58761904D01*
X111885771Y-58761904D02*
X111885771Y-58523809D01*
X111885771Y-58523809D02*
X111933390Y-58428571D01*
X111933390Y-58428571D02*
X111981009Y-58380952D01*
X111981009Y-58380952D02*
X112076247Y-58333333D01*
X112076247Y-58333333D02*
X112314342Y-58333333D01*
X112314342Y-58333333D02*
X112409580Y-58380952D01*
X112409580Y-58380952D02*
X112457200Y-58428571D01*
X112457200Y-58428571D02*
X112504819Y-58523809D01*
X112504819Y-58523809D02*
X112504819Y-58761904D01*
X112504819Y-58761904D02*
X112457200Y-58857142D01*
X112457200Y-58857142D02*
X112409580Y-58904761D01*
X75114819Y-105383333D02*
X75829104Y-105383333D01*
X75829104Y-105383333D02*
X75971961Y-105430952D01*
X75971961Y-105430952D02*
X76067200Y-105526190D01*
X76067200Y-105526190D02*
X76114819Y-105669047D01*
X76114819Y-105669047D02*
X76114819Y-105764285D01*
X75210057Y-104954761D02*
X75162438Y-104907142D01*
X75162438Y-104907142D02*
X75114819Y-104811904D01*
X75114819Y-104811904D02*
X75114819Y-104573809D01*
X75114819Y-104573809D02*
X75162438Y-104478571D01*
X75162438Y-104478571D02*
X75210057Y-104430952D01*
X75210057Y-104430952D02*
X75305295Y-104383333D01*
X75305295Y-104383333D02*
X75400533Y-104383333D01*
X75400533Y-104383333D02*
X75543390Y-104430952D01*
X75543390Y-104430952D02*
X76114819Y-105002380D01*
X76114819Y-105002380D02*
X76114819Y-104383333D01*
X68741667Y-105882200D02*
X68884524Y-105929819D01*
X68884524Y-105929819D02*
X69122619Y-105929819D01*
X69122619Y-105929819D02*
X69217857Y-105882200D01*
X69217857Y-105882200D02*
X69265476Y-105834580D01*
X69265476Y-105834580D02*
X69313095Y-105739342D01*
X69313095Y-105739342D02*
X69313095Y-105644104D01*
X69313095Y-105644104D02*
X69265476Y-105548866D01*
X69265476Y-105548866D02*
X69217857Y-105501247D01*
X69217857Y-105501247D02*
X69122619Y-105453628D01*
X69122619Y-105453628D02*
X68932143Y-105406009D01*
X68932143Y-105406009D02*
X68836905Y-105358390D01*
X68836905Y-105358390D02*
X68789286Y-105310771D01*
X68789286Y-105310771D02*
X68741667Y-105215533D01*
X68741667Y-105215533D02*
X68741667Y-105120295D01*
X68741667Y-105120295D02*
X68789286Y-105025057D01*
X68789286Y-105025057D02*
X68836905Y-104977438D01*
X68836905Y-104977438D02*
X68932143Y-104929819D01*
X68932143Y-104929819D02*
X69170238Y-104929819D01*
X69170238Y-104929819D02*
X69313095Y-104977438D01*
X69646429Y-104929819D02*
X69884524Y-105929819D01*
X69884524Y-105929819D02*
X70075000Y-105215533D01*
X70075000Y-105215533D02*
X70265476Y-105929819D01*
X70265476Y-105929819D02*
X70503572Y-104929819D01*
X71408333Y-105929819D02*
X70836905Y-105929819D01*
X71122619Y-105929819D02*
X71122619Y-104929819D01*
X71122619Y-104929819D02*
X71027381Y-105072676D01*
X71027381Y-105072676D02*
X70932143Y-105167914D01*
X70932143Y-105167914D02*
X70836905Y-105215533D01*
X44674819Y-101559523D02*
X45389104Y-101559523D01*
X45389104Y-101559523D02*
X45531961Y-101607142D01*
X45531961Y-101607142D02*
X45627200Y-101702380D01*
X45627200Y-101702380D02*
X45674819Y-101845237D01*
X45674819Y-101845237D02*
X45674819Y-101940475D01*
X45674819Y-100559523D02*
X45674819Y-101130951D01*
X45674819Y-100845237D02*
X44674819Y-100845237D01*
X44674819Y-100845237D02*
X44817676Y-100940475D01*
X44817676Y-100940475D02*
X44912914Y-101035713D01*
X44912914Y-101035713D02*
X44960533Y-101130951D01*
X45674819Y-99607142D02*
X45674819Y-100178570D01*
X45674819Y-99892856D02*
X44674819Y-99892856D01*
X44674819Y-99892856D02*
X44817676Y-99988094D01*
X44817676Y-99988094D02*
X44912914Y-100083332D01*
X44912914Y-100083332D02*
X44960533Y-100178570D01*
X48441666Y-55454819D02*
X48441666Y-56169104D01*
X48441666Y-56169104D02*
X48394047Y-56311961D01*
X48394047Y-56311961D02*
X48298809Y-56407200D01*
X48298809Y-56407200D02*
X48155952Y-56454819D01*
X48155952Y-56454819D02*
X48060714Y-56454819D01*
X49346428Y-55454819D02*
X49155952Y-55454819D01*
X49155952Y-55454819D02*
X49060714Y-55502438D01*
X49060714Y-55502438D02*
X49013095Y-55550057D01*
X49013095Y-55550057D02*
X48917857Y-55692914D01*
X48917857Y-55692914D02*
X48870238Y-55883390D01*
X48870238Y-55883390D02*
X48870238Y-56264342D01*
X48870238Y-56264342D02*
X48917857Y-56359580D01*
X48917857Y-56359580D02*
X48965476Y-56407200D01*
X48965476Y-56407200D02*
X49060714Y-56454819D01*
X49060714Y-56454819D02*
X49251190Y-56454819D01*
X49251190Y-56454819D02*
X49346428Y-56407200D01*
X49346428Y-56407200D02*
X49394047Y-56359580D01*
X49394047Y-56359580D02*
X49441666Y-56264342D01*
X49441666Y-56264342D02*
X49441666Y-56026247D01*
X49441666Y-56026247D02*
X49394047Y-55931009D01*
X49394047Y-55931009D02*
X49346428Y-55883390D01*
X49346428Y-55883390D02*
X49251190Y-55835771D01*
X49251190Y-55835771D02*
X49060714Y-55835771D01*
X49060714Y-55835771D02*
X48965476Y-55883390D01*
X48965476Y-55883390D02*
X48917857Y-55931009D01*
X48917857Y-55931009D02*
X48870238Y-56026247D01*
X112504819Y-56292857D02*
X112028628Y-56626190D01*
X112504819Y-56864285D02*
X111504819Y-56864285D01*
X111504819Y-56864285D02*
X111504819Y-56483333D01*
X111504819Y-56483333D02*
X111552438Y-56388095D01*
X111552438Y-56388095D02*
X111600057Y-56340476D01*
X111600057Y-56340476D02*
X111695295Y-56292857D01*
X111695295Y-56292857D02*
X111838152Y-56292857D01*
X111838152Y-56292857D02*
X111933390Y-56340476D01*
X111933390Y-56340476D02*
X111981009Y-56388095D01*
X111981009Y-56388095D02*
X112028628Y-56483333D01*
X112028628Y-56483333D02*
X112028628Y-56864285D01*
X112504819Y-55340476D02*
X112504819Y-55911904D01*
X112504819Y-55626190D02*
X111504819Y-55626190D01*
X111504819Y-55626190D02*
X111647676Y-55721428D01*
X111647676Y-55721428D02*
X111742914Y-55816666D01*
X111742914Y-55816666D02*
X111790533Y-55911904D01*
X111504819Y-55007142D02*
X111504819Y-54388095D01*
X111504819Y-54388095D02*
X111885771Y-54721428D01*
X111885771Y-54721428D02*
X111885771Y-54578571D01*
X111885771Y-54578571D02*
X111933390Y-54483333D01*
X111933390Y-54483333D02*
X111981009Y-54435714D01*
X111981009Y-54435714D02*
X112076247Y-54388095D01*
X112076247Y-54388095D02*
X112314342Y-54388095D01*
X112314342Y-54388095D02*
X112409580Y-54435714D01*
X112409580Y-54435714D02*
X112457200Y-54483333D01*
X112457200Y-54483333D02*
X112504819Y-54578571D01*
X112504819Y-54578571D02*
X112504819Y-54864285D01*
X112504819Y-54864285D02*
X112457200Y-54959523D01*
X112457200Y-54959523D02*
X112409580Y-55007142D01*
X88053628Y-90851190D02*
X88529819Y-90851190D01*
X87529819Y-91184523D02*
X88053628Y-90851190D01*
X88053628Y-90851190D02*
X87529819Y-90517857D01*
X88529819Y-89660714D02*
X88529819Y-90232142D01*
X88529819Y-89946428D02*
X87529819Y-89946428D01*
X87529819Y-89946428D02*
X87672676Y-90041666D01*
X87672676Y-90041666D02*
X87767914Y-90136904D01*
X87767914Y-90136904D02*
X87815533Y-90232142D01*
X47429761Y-77904819D02*
X47096428Y-77428628D01*
X46858333Y-77904819D02*
X46858333Y-76904819D01*
X46858333Y-76904819D02*
X47239285Y-76904819D01*
X47239285Y-76904819D02*
X47334523Y-76952438D01*
X47334523Y-76952438D02*
X47382142Y-77000057D01*
X47382142Y-77000057D02*
X47429761Y-77095295D01*
X47429761Y-77095295D02*
X47429761Y-77238152D01*
X47429761Y-77238152D02*
X47382142Y-77333390D01*
X47382142Y-77333390D02*
X47334523Y-77381009D01*
X47334523Y-77381009D02*
X47239285Y-77428628D01*
X47239285Y-77428628D02*
X46858333Y-77428628D01*
X47715476Y-76904819D02*
X48048809Y-77904819D01*
X48048809Y-77904819D02*
X48382142Y-76904819D01*
X49239285Y-77904819D02*
X48667857Y-77904819D01*
X48953571Y-77904819D02*
X48953571Y-76904819D01*
X48953571Y-76904819D02*
X48858333Y-77047676D01*
X48858333Y-77047676D02*
X48763095Y-77142914D01*
X48763095Y-77142914D02*
X48667857Y-77190533D01*
X96463095Y-88854819D02*
X96463095Y-89664342D01*
X96463095Y-89664342D02*
X96510714Y-89759580D01*
X96510714Y-89759580D02*
X96558333Y-89807200D01*
X96558333Y-89807200D02*
X96653571Y-89854819D01*
X96653571Y-89854819D02*
X96844047Y-89854819D01*
X96844047Y-89854819D02*
X96939285Y-89807200D01*
X96939285Y-89807200D02*
X96986904Y-89759580D01*
X96986904Y-89759580D02*
X97034523Y-89664342D01*
X97034523Y-89664342D02*
X97034523Y-88854819D01*
X98034523Y-89854819D02*
X97463095Y-89854819D01*
X97748809Y-89854819D02*
X97748809Y-88854819D01*
X97748809Y-88854819D02*
X97653571Y-88997676D01*
X97653571Y-88997676D02*
X97558333Y-89092914D01*
X97558333Y-89092914D02*
X97463095Y-89140533D01*
X62957200Y-112258332D02*
X63004819Y-112115475D01*
X63004819Y-112115475D02*
X63004819Y-111877380D01*
X63004819Y-111877380D02*
X62957200Y-111782142D01*
X62957200Y-111782142D02*
X62909580Y-111734523D01*
X62909580Y-111734523D02*
X62814342Y-111686904D01*
X62814342Y-111686904D02*
X62719104Y-111686904D01*
X62719104Y-111686904D02*
X62623866Y-111734523D01*
X62623866Y-111734523D02*
X62576247Y-111782142D01*
X62576247Y-111782142D02*
X62528628Y-111877380D01*
X62528628Y-111877380D02*
X62481009Y-112067856D01*
X62481009Y-112067856D02*
X62433390Y-112163094D01*
X62433390Y-112163094D02*
X62385771Y-112210713D01*
X62385771Y-112210713D02*
X62290533Y-112258332D01*
X62290533Y-112258332D02*
X62195295Y-112258332D01*
X62195295Y-112258332D02*
X62100057Y-112210713D01*
X62100057Y-112210713D02*
X62052438Y-112163094D01*
X62052438Y-112163094D02*
X62004819Y-112067856D01*
X62004819Y-112067856D02*
X62004819Y-111829761D01*
X62004819Y-111829761D02*
X62052438Y-111686904D01*
X62004819Y-111353570D02*
X63004819Y-111115475D01*
X63004819Y-111115475D02*
X62290533Y-110924999D01*
X62290533Y-110924999D02*
X63004819Y-110734523D01*
X63004819Y-110734523D02*
X62004819Y-110496428D01*
X62004819Y-110210713D02*
X62004819Y-109591666D01*
X62004819Y-109591666D02*
X62385771Y-109924999D01*
X62385771Y-109924999D02*
X62385771Y-109782142D01*
X62385771Y-109782142D02*
X62433390Y-109686904D01*
X62433390Y-109686904D02*
X62481009Y-109639285D01*
X62481009Y-109639285D02*
X62576247Y-109591666D01*
X62576247Y-109591666D02*
X62814342Y-109591666D01*
X62814342Y-109591666D02*
X62909580Y-109639285D01*
X62909580Y-109639285D02*
X62957200Y-109686904D01*
X62957200Y-109686904D02*
X63004819Y-109782142D01*
X63004819Y-109782142D02*
X63004819Y-110067856D01*
X63004819Y-110067856D02*
X62957200Y-110163094D01*
X62957200Y-110163094D02*
X62909580Y-110210713D01*
X90299819Y-53038333D02*
X91014104Y-53038333D01*
X91014104Y-53038333D02*
X91156961Y-53085952D01*
X91156961Y-53085952D02*
X91252200Y-53181190D01*
X91252200Y-53181190D02*
X91299819Y-53324047D01*
X91299819Y-53324047D02*
X91299819Y-53419285D01*
X90728390Y-52419285D02*
X90680771Y-52514523D01*
X90680771Y-52514523D02*
X90633152Y-52562142D01*
X90633152Y-52562142D02*
X90537914Y-52609761D01*
X90537914Y-52609761D02*
X90490295Y-52609761D01*
X90490295Y-52609761D02*
X90395057Y-52562142D01*
X90395057Y-52562142D02*
X90347438Y-52514523D01*
X90347438Y-52514523D02*
X90299819Y-52419285D01*
X90299819Y-52419285D02*
X90299819Y-52228809D01*
X90299819Y-52228809D02*
X90347438Y-52133571D01*
X90347438Y-52133571D02*
X90395057Y-52085952D01*
X90395057Y-52085952D02*
X90490295Y-52038333D01*
X90490295Y-52038333D02*
X90537914Y-52038333D01*
X90537914Y-52038333D02*
X90633152Y-52085952D01*
X90633152Y-52085952D02*
X90680771Y-52133571D01*
X90680771Y-52133571D02*
X90728390Y-52228809D01*
X90728390Y-52228809D02*
X90728390Y-52419285D01*
X90728390Y-52419285D02*
X90776009Y-52514523D01*
X90776009Y-52514523D02*
X90823628Y-52562142D01*
X90823628Y-52562142D02*
X90918866Y-52609761D01*
X90918866Y-52609761D02*
X91109342Y-52609761D01*
X91109342Y-52609761D02*
X91204580Y-52562142D01*
X91204580Y-52562142D02*
X91252200Y-52514523D01*
X91252200Y-52514523D02*
X91299819Y-52419285D01*
X91299819Y-52419285D02*
X91299819Y-52228809D01*
X91299819Y-52228809D02*
X91252200Y-52133571D01*
X91252200Y-52133571D02*
X91204580Y-52085952D01*
X91204580Y-52085952D02*
X91109342Y-52038333D01*
X91109342Y-52038333D02*
X90918866Y-52038333D01*
X90918866Y-52038333D02*
X90823628Y-52085952D01*
X90823628Y-52085952D02*
X90776009Y-52133571D01*
X90776009Y-52133571D02*
X90728390Y-52228809D01*
X64786905Y-80904819D02*
X64786905Y-79904819D01*
X64786905Y-79904819D02*
X65025000Y-79904819D01*
X65025000Y-79904819D02*
X65167857Y-79952438D01*
X65167857Y-79952438D02*
X65263095Y-80047676D01*
X65263095Y-80047676D02*
X65310714Y-80142914D01*
X65310714Y-80142914D02*
X65358333Y-80333390D01*
X65358333Y-80333390D02*
X65358333Y-80476247D01*
X65358333Y-80476247D02*
X65310714Y-80666723D01*
X65310714Y-80666723D02*
X65263095Y-80761961D01*
X65263095Y-80761961D02*
X65167857Y-80857200D01*
X65167857Y-80857200D02*
X65025000Y-80904819D01*
X65025000Y-80904819D02*
X64786905Y-80904819D01*
X66310714Y-80904819D02*
X65739286Y-80904819D01*
X66025000Y-80904819D02*
X66025000Y-79904819D01*
X66025000Y-79904819D02*
X65929762Y-80047676D01*
X65929762Y-80047676D02*
X65834524Y-80142914D01*
X65834524Y-80142914D02*
X65739286Y-80190533D01*
X72258333Y-108597080D02*
X72210714Y-108644700D01*
X72210714Y-108644700D02*
X72067857Y-108692319D01*
X72067857Y-108692319D02*
X71972619Y-108692319D01*
X71972619Y-108692319D02*
X71829762Y-108644700D01*
X71829762Y-108644700D02*
X71734524Y-108549461D01*
X71734524Y-108549461D02*
X71686905Y-108454223D01*
X71686905Y-108454223D02*
X71639286Y-108263747D01*
X71639286Y-108263747D02*
X71639286Y-108120890D01*
X71639286Y-108120890D02*
X71686905Y-107930414D01*
X71686905Y-107930414D02*
X71734524Y-107835176D01*
X71734524Y-107835176D02*
X71829762Y-107739938D01*
X71829762Y-107739938D02*
X71972619Y-107692319D01*
X71972619Y-107692319D02*
X72067857Y-107692319D01*
X72067857Y-107692319D02*
X72210714Y-107739938D01*
X72210714Y-107739938D02*
X72258333Y-107787557D01*
X73210714Y-108692319D02*
X72639286Y-108692319D01*
X72925000Y-108692319D02*
X72925000Y-107692319D01*
X72925000Y-107692319D02*
X72829762Y-107835176D01*
X72829762Y-107835176D02*
X72734524Y-107930414D01*
X72734524Y-107930414D02*
X72639286Y-107978033D01*
X79666667Y-39607200D02*
X79809524Y-39654819D01*
X79809524Y-39654819D02*
X80047619Y-39654819D01*
X80047619Y-39654819D02*
X80142857Y-39607200D01*
X80142857Y-39607200D02*
X80190476Y-39559580D01*
X80190476Y-39559580D02*
X80238095Y-39464342D01*
X80238095Y-39464342D02*
X80238095Y-39369104D01*
X80238095Y-39369104D02*
X80190476Y-39273866D01*
X80190476Y-39273866D02*
X80142857Y-39226247D01*
X80142857Y-39226247D02*
X80047619Y-39178628D01*
X80047619Y-39178628D02*
X79857143Y-39131009D01*
X79857143Y-39131009D02*
X79761905Y-39083390D01*
X79761905Y-39083390D02*
X79714286Y-39035771D01*
X79714286Y-39035771D02*
X79666667Y-38940533D01*
X79666667Y-38940533D02*
X79666667Y-38845295D01*
X79666667Y-38845295D02*
X79714286Y-38750057D01*
X79714286Y-38750057D02*
X79761905Y-38702438D01*
X79761905Y-38702438D02*
X79857143Y-38654819D01*
X79857143Y-38654819D02*
X80095238Y-38654819D01*
X80095238Y-38654819D02*
X80238095Y-38702438D01*
X80571429Y-38654819D02*
X80809524Y-39654819D01*
X80809524Y-39654819D02*
X81000000Y-38940533D01*
X81000000Y-38940533D02*
X81190476Y-39654819D01*
X81190476Y-39654819D02*
X81428572Y-38654819D01*
X81761905Y-38750057D02*
X81809524Y-38702438D01*
X81809524Y-38702438D02*
X81904762Y-38654819D01*
X81904762Y-38654819D02*
X82142857Y-38654819D01*
X82142857Y-38654819D02*
X82238095Y-38702438D01*
X82238095Y-38702438D02*
X82285714Y-38750057D01*
X82285714Y-38750057D02*
X82333333Y-38845295D01*
X82333333Y-38845295D02*
X82333333Y-38940533D01*
X82333333Y-38940533D02*
X82285714Y-39083390D01*
X82285714Y-39083390D02*
X81714286Y-39654819D01*
X81714286Y-39654819D02*
X82333333Y-39654819D01*
X75659580Y-95166666D02*
X75707200Y-95214285D01*
X75707200Y-95214285D02*
X75754819Y-95357142D01*
X75754819Y-95357142D02*
X75754819Y-95452380D01*
X75754819Y-95452380D02*
X75707200Y-95595237D01*
X75707200Y-95595237D02*
X75611961Y-95690475D01*
X75611961Y-95690475D02*
X75516723Y-95738094D01*
X75516723Y-95738094D02*
X75326247Y-95785713D01*
X75326247Y-95785713D02*
X75183390Y-95785713D01*
X75183390Y-95785713D02*
X74992914Y-95738094D01*
X74992914Y-95738094D02*
X74897676Y-95690475D01*
X74897676Y-95690475D02*
X74802438Y-95595237D01*
X74802438Y-95595237D02*
X74754819Y-95452380D01*
X74754819Y-95452380D02*
X74754819Y-95357142D01*
X74754819Y-95357142D02*
X74802438Y-95214285D01*
X74802438Y-95214285D02*
X74850057Y-95166666D01*
X74850057Y-94785713D02*
X74802438Y-94738094D01*
X74802438Y-94738094D02*
X74754819Y-94642856D01*
X74754819Y-94642856D02*
X74754819Y-94404761D01*
X74754819Y-94404761D02*
X74802438Y-94309523D01*
X74802438Y-94309523D02*
X74850057Y-94261904D01*
X74850057Y-94261904D02*
X74945295Y-94214285D01*
X74945295Y-94214285D02*
X75040533Y-94214285D01*
X75040533Y-94214285D02*
X75183390Y-94261904D01*
X75183390Y-94261904D02*
X75754819Y-94833332D01*
X75754819Y-94833332D02*
X75754819Y-94214285D01*
X53523333Y-77544819D02*
X53190000Y-77068628D01*
X52951905Y-77544819D02*
X52951905Y-76544819D01*
X52951905Y-76544819D02*
X53332857Y-76544819D01*
X53332857Y-76544819D02*
X53428095Y-76592438D01*
X53428095Y-76592438D02*
X53475714Y-76640057D01*
X53475714Y-76640057D02*
X53523333Y-76735295D01*
X53523333Y-76735295D02*
X53523333Y-76878152D01*
X53523333Y-76878152D02*
X53475714Y-76973390D01*
X53475714Y-76973390D02*
X53428095Y-77021009D01*
X53428095Y-77021009D02*
X53332857Y-77068628D01*
X53332857Y-77068628D02*
X52951905Y-77068628D01*
X53999524Y-77544819D02*
X54190000Y-77544819D01*
X54190000Y-77544819D02*
X54285238Y-77497200D01*
X54285238Y-77497200D02*
X54332857Y-77449580D01*
X54332857Y-77449580D02*
X54428095Y-77306723D01*
X54428095Y-77306723D02*
X54475714Y-77116247D01*
X54475714Y-77116247D02*
X54475714Y-76735295D01*
X54475714Y-76735295D02*
X54428095Y-76640057D01*
X54428095Y-76640057D02*
X54380476Y-76592438D01*
X54380476Y-76592438D02*
X54285238Y-76544819D01*
X54285238Y-76544819D02*
X54094762Y-76544819D01*
X54094762Y-76544819D02*
X53999524Y-76592438D01*
X53999524Y-76592438D02*
X53951905Y-76640057D01*
X53951905Y-76640057D02*
X53904286Y-76735295D01*
X53904286Y-76735295D02*
X53904286Y-76973390D01*
X53904286Y-76973390D02*
X53951905Y-77068628D01*
X53951905Y-77068628D02*
X53999524Y-77116247D01*
X53999524Y-77116247D02*
X54094762Y-77163866D01*
X54094762Y-77163866D02*
X54285238Y-77163866D01*
X54285238Y-77163866D02*
X54380476Y-77116247D01*
X54380476Y-77116247D02*
X54428095Y-77068628D01*
X54428095Y-77068628D02*
X54475714Y-76973390D01*
X77909819Y-101506666D02*
X77433628Y-101839999D01*
X77909819Y-102078094D02*
X76909819Y-102078094D01*
X76909819Y-102078094D02*
X76909819Y-101697142D01*
X76909819Y-101697142D02*
X76957438Y-101601904D01*
X76957438Y-101601904D02*
X77005057Y-101554285D01*
X77005057Y-101554285D02*
X77100295Y-101506666D01*
X77100295Y-101506666D02*
X77243152Y-101506666D01*
X77243152Y-101506666D02*
X77338390Y-101554285D01*
X77338390Y-101554285D02*
X77386009Y-101601904D01*
X77386009Y-101601904D02*
X77433628Y-101697142D01*
X77433628Y-101697142D02*
X77433628Y-102078094D01*
X76909819Y-100601904D02*
X76909819Y-101078094D01*
X76909819Y-101078094D02*
X77386009Y-101125713D01*
X77386009Y-101125713D02*
X77338390Y-101078094D01*
X77338390Y-101078094D02*
X77290771Y-100982856D01*
X77290771Y-100982856D02*
X77290771Y-100744761D01*
X77290771Y-100744761D02*
X77338390Y-100649523D01*
X77338390Y-100649523D02*
X77386009Y-100601904D01*
X77386009Y-100601904D02*
X77481247Y-100554285D01*
X77481247Y-100554285D02*
X77719342Y-100554285D01*
X77719342Y-100554285D02*
X77814580Y-100601904D01*
X77814580Y-100601904D02*
X77862200Y-100649523D01*
X77862200Y-100649523D02*
X77909819Y-100744761D01*
X77909819Y-100744761D02*
X77909819Y-100982856D01*
X77909819Y-100982856D02*
X77862200Y-101078094D01*
X77862200Y-101078094D02*
X77814580Y-101125713D01*
X101454819Y-114183333D02*
X102169104Y-114183333D01*
X102169104Y-114183333D02*
X102311961Y-114230952D01*
X102311961Y-114230952D02*
X102407200Y-114326190D01*
X102407200Y-114326190D02*
X102454819Y-114469047D01*
X102454819Y-114469047D02*
X102454819Y-114564285D01*
X101788152Y-113278571D02*
X102454819Y-113278571D01*
X101407200Y-113516666D02*
X102121485Y-113754761D01*
X102121485Y-113754761D02*
X102121485Y-113135714D01*
X89403333Y-40404819D02*
X89070000Y-39928628D01*
X88831905Y-40404819D02*
X88831905Y-39404819D01*
X88831905Y-39404819D02*
X89212857Y-39404819D01*
X89212857Y-39404819D02*
X89308095Y-39452438D01*
X89308095Y-39452438D02*
X89355714Y-39500057D01*
X89355714Y-39500057D02*
X89403333Y-39595295D01*
X89403333Y-39595295D02*
X89403333Y-39738152D01*
X89403333Y-39738152D02*
X89355714Y-39833390D01*
X89355714Y-39833390D02*
X89308095Y-39881009D01*
X89308095Y-39881009D02*
X89212857Y-39928628D01*
X89212857Y-39928628D02*
X88831905Y-39928628D01*
X90260476Y-39404819D02*
X90070000Y-39404819D01*
X90070000Y-39404819D02*
X89974762Y-39452438D01*
X89974762Y-39452438D02*
X89927143Y-39500057D01*
X89927143Y-39500057D02*
X89831905Y-39642914D01*
X89831905Y-39642914D02*
X89784286Y-39833390D01*
X89784286Y-39833390D02*
X89784286Y-40214342D01*
X89784286Y-40214342D02*
X89831905Y-40309580D01*
X89831905Y-40309580D02*
X89879524Y-40357200D01*
X89879524Y-40357200D02*
X89974762Y-40404819D01*
X89974762Y-40404819D02*
X90165238Y-40404819D01*
X90165238Y-40404819D02*
X90260476Y-40357200D01*
X90260476Y-40357200D02*
X90308095Y-40309580D01*
X90308095Y-40309580D02*
X90355714Y-40214342D01*
X90355714Y-40214342D02*
X90355714Y-39976247D01*
X90355714Y-39976247D02*
X90308095Y-39881009D01*
X90308095Y-39881009D02*
X90260476Y-39833390D01*
X90260476Y-39833390D02*
X90165238Y-39785771D01*
X90165238Y-39785771D02*
X89974762Y-39785771D01*
X89974762Y-39785771D02*
X89879524Y-39833390D01*
X89879524Y-39833390D02*
X89831905Y-39881009D01*
X89831905Y-39881009D02*
X89784286Y-39976247D01*
X113254761Y-77804819D02*
X112921428Y-77328628D01*
X112683333Y-77804819D02*
X112683333Y-76804819D01*
X112683333Y-76804819D02*
X113064285Y-76804819D01*
X113064285Y-76804819D02*
X113159523Y-76852438D01*
X113159523Y-76852438D02*
X113207142Y-76900057D01*
X113207142Y-76900057D02*
X113254761Y-76995295D01*
X113254761Y-76995295D02*
X113254761Y-77138152D01*
X113254761Y-77138152D02*
X113207142Y-77233390D01*
X113207142Y-77233390D02*
X113159523Y-77281009D01*
X113159523Y-77281009D02*
X113064285Y-77328628D01*
X113064285Y-77328628D02*
X112683333Y-77328628D01*
X113540476Y-76804819D02*
X113873809Y-77804819D01*
X113873809Y-77804819D02*
X114207142Y-76804819D01*
X114492857Y-76900057D02*
X114540476Y-76852438D01*
X114540476Y-76852438D02*
X114635714Y-76804819D01*
X114635714Y-76804819D02*
X114873809Y-76804819D01*
X114873809Y-76804819D02*
X114969047Y-76852438D01*
X114969047Y-76852438D02*
X115016666Y-76900057D01*
X115016666Y-76900057D02*
X115064285Y-76995295D01*
X115064285Y-76995295D02*
X115064285Y-77090533D01*
X115064285Y-77090533D02*
X115016666Y-77233390D01*
X115016666Y-77233390D02*
X114445238Y-77804819D01*
X114445238Y-77804819D02*
X115064285Y-77804819D01*
X102120833Y-87629819D02*
X101787500Y-87153628D01*
X101549405Y-87629819D02*
X101549405Y-86629819D01*
X101549405Y-86629819D02*
X101930357Y-86629819D01*
X101930357Y-86629819D02*
X102025595Y-86677438D01*
X102025595Y-86677438D02*
X102073214Y-86725057D01*
X102073214Y-86725057D02*
X102120833Y-86820295D01*
X102120833Y-86820295D02*
X102120833Y-86963152D01*
X102120833Y-86963152D02*
X102073214Y-87058390D01*
X102073214Y-87058390D02*
X102025595Y-87106009D01*
X102025595Y-87106009D02*
X101930357Y-87153628D01*
X101930357Y-87153628D02*
X101549405Y-87153628D01*
X102454167Y-86629819D02*
X103073214Y-86629819D01*
X103073214Y-86629819D02*
X102739881Y-87010771D01*
X102739881Y-87010771D02*
X102882738Y-87010771D01*
X102882738Y-87010771D02*
X102977976Y-87058390D01*
X102977976Y-87058390D02*
X103025595Y-87106009D01*
X103025595Y-87106009D02*
X103073214Y-87201247D01*
X103073214Y-87201247D02*
X103073214Y-87439342D01*
X103073214Y-87439342D02*
X103025595Y-87534580D01*
X103025595Y-87534580D02*
X102977976Y-87582200D01*
X102977976Y-87582200D02*
X102882738Y-87629819D01*
X102882738Y-87629819D02*
X102597024Y-87629819D01*
X102597024Y-87629819D02*
X102501786Y-87582200D01*
X102501786Y-87582200D02*
X102454167Y-87534580D01*
X44604819Y-105523333D02*
X45319104Y-105523333D01*
X45319104Y-105523333D02*
X45461961Y-105570952D01*
X45461961Y-105570952D02*
X45557200Y-105666190D01*
X45557200Y-105666190D02*
X45604819Y-105809047D01*
X45604819Y-105809047D02*
X45604819Y-105904285D01*
X44604819Y-105142380D02*
X44604819Y-104475714D01*
X44604819Y-104475714D02*
X45604819Y-104904285D01*
X112074819Y-52433333D02*
X112789104Y-52433333D01*
X112789104Y-52433333D02*
X112931961Y-52480952D01*
X112931961Y-52480952D02*
X113027200Y-52576190D01*
X113027200Y-52576190D02*
X113074819Y-52719047D01*
X113074819Y-52719047D02*
X113074819Y-52814285D01*
X112074819Y-52052380D02*
X112074819Y-51433333D01*
X112074819Y-51433333D02*
X112455771Y-51766666D01*
X112455771Y-51766666D02*
X112455771Y-51623809D01*
X112455771Y-51623809D02*
X112503390Y-51528571D01*
X112503390Y-51528571D02*
X112551009Y-51480952D01*
X112551009Y-51480952D02*
X112646247Y-51433333D01*
X112646247Y-51433333D02*
X112884342Y-51433333D01*
X112884342Y-51433333D02*
X112979580Y-51480952D01*
X112979580Y-51480952D02*
X113027200Y-51528571D01*
X113027200Y-51528571D02*
X113074819Y-51623809D01*
X113074819Y-51623809D02*
X113074819Y-51909523D01*
X113074819Y-51909523D02*
X113027200Y-52004761D01*
X113027200Y-52004761D02*
X112979580Y-52052380D01*
X102045833Y-84054819D02*
X101712500Y-83578628D01*
X101474405Y-84054819D02*
X101474405Y-83054819D01*
X101474405Y-83054819D02*
X101855357Y-83054819D01*
X101855357Y-83054819D02*
X101950595Y-83102438D01*
X101950595Y-83102438D02*
X101998214Y-83150057D01*
X101998214Y-83150057D02*
X102045833Y-83245295D01*
X102045833Y-83245295D02*
X102045833Y-83388152D01*
X102045833Y-83388152D02*
X101998214Y-83483390D01*
X101998214Y-83483390D02*
X101950595Y-83531009D01*
X101950595Y-83531009D02*
X101855357Y-83578628D01*
X101855357Y-83578628D02*
X101474405Y-83578628D01*
X102426786Y-83150057D02*
X102474405Y-83102438D01*
X102474405Y-83102438D02*
X102569643Y-83054819D01*
X102569643Y-83054819D02*
X102807738Y-83054819D01*
X102807738Y-83054819D02*
X102902976Y-83102438D01*
X102902976Y-83102438D02*
X102950595Y-83150057D01*
X102950595Y-83150057D02*
X102998214Y-83245295D01*
X102998214Y-83245295D02*
X102998214Y-83340533D01*
X102998214Y-83340533D02*
X102950595Y-83483390D01*
X102950595Y-83483390D02*
X102379167Y-84054819D01*
X102379167Y-84054819D02*
X102998214Y-84054819D01*
X102145833Y-80629819D02*
X101812500Y-80153628D01*
X101574405Y-80629819D02*
X101574405Y-79629819D01*
X101574405Y-79629819D02*
X101955357Y-79629819D01*
X101955357Y-79629819D02*
X102050595Y-79677438D01*
X102050595Y-79677438D02*
X102098214Y-79725057D01*
X102098214Y-79725057D02*
X102145833Y-79820295D01*
X102145833Y-79820295D02*
X102145833Y-79963152D01*
X102145833Y-79963152D02*
X102098214Y-80058390D01*
X102098214Y-80058390D02*
X102050595Y-80106009D01*
X102050595Y-80106009D02*
X101955357Y-80153628D01*
X101955357Y-80153628D02*
X101574405Y-80153628D01*
X103098214Y-80629819D02*
X102526786Y-80629819D01*
X102812500Y-80629819D02*
X102812500Y-79629819D01*
X102812500Y-79629819D02*
X102717262Y-79772676D01*
X102717262Y-79772676D02*
X102622024Y-79867914D01*
X102622024Y-79867914D02*
X102526786Y-79915533D01*
D12*
X94402380Y-98853842D02*
X94583809Y-98914318D01*
X94583809Y-98914318D02*
X94886190Y-98914318D01*
X94886190Y-98914318D02*
X95007142Y-98853842D01*
X95007142Y-98853842D02*
X95067618Y-98793365D01*
X95067618Y-98793365D02*
X95128095Y-98672413D01*
X95128095Y-98672413D02*
X95128095Y-98551461D01*
X95128095Y-98551461D02*
X95067618Y-98430508D01*
X95067618Y-98430508D02*
X95007142Y-98370032D01*
X95007142Y-98370032D02*
X94886190Y-98309556D01*
X94886190Y-98309556D02*
X94644285Y-98249080D01*
X94644285Y-98249080D02*
X94523333Y-98188603D01*
X94523333Y-98188603D02*
X94462856Y-98128127D01*
X94462856Y-98128127D02*
X94402380Y-98007175D01*
X94402380Y-98007175D02*
X94402380Y-97886222D01*
X94402380Y-97886222D02*
X94462856Y-97765270D01*
X94462856Y-97765270D02*
X94523333Y-97704794D01*
X94523333Y-97704794D02*
X94644285Y-97644318D01*
X94644285Y-97644318D02*
X94946666Y-97644318D01*
X94946666Y-97644318D02*
X95128095Y-97704794D01*
X96337619Y-98914318D02*
X95611904Y-98914318D01*
X95974761Y-98914318D02*
X95974761Y-97644318D01*
X95974761Y-97644318D02*
X95853809Y-97825746D01*
X95853809Y-97825746D02*
X95732857Y-97946699D01*
X95732857Y-97946699D02*
X95611904Y-98007175D01*
X65610237Y-92132318D02*
X65610237Y-90862318D01*
X66940714Y-92011365D02*
X66880238Y-92071842D01*
X66880238Y-92071842D02*
X66698809Y-92132318D01*
X66698809Y-92132318D02*
X66577857Y-92132318D01*
X66577857Y-92132318D02*
X66396428Y-92071842D01*
X66396428Y-92071842D02*
X66275476Y-91950889D01*
X66275476Y-91950889D02*
X66214999Y-91829937D01*
X66214999Y-91829937D02*
X66154523Y-91588032D01*
X66154523Y-91588032D02*
X66154523Y-91406603D01*
X66154523Y-91406603D02*
X66214999Y-91164699D01*
X66214999Y-91164699D02*
X66275476Y-91043746D01*
X66275476Y-91043746D02*
X66396428Y-90922794D01*
X66396428Y-90922794D02*
X66577857Y-90862318D01*
X66577857Y-90862318D02*
X66698809Y-90862318D01*
X66698809Y-90862318D02*
X66880238Y-90922794D01*
X66880238Y-90922794D02*
X66940714Y-90983270D01*
X68150238Y-92132318D02*
X67424523Y-92132318D01*
X67787380Y-92132318D02*
X67787380Y-90862318D01*
X67787380Y-90862318D02*
X67666428Y-91043746D01*
X67666428Y-91043746D02*
X67545476Y-91164699D01*
X67545476Y-91164699D02*
X67424523Y-91225175D01*
D11*
X111874819Y-67383333D02*
X112589104Y-67383333D01*
X112589104Y-67383333D02*
X112731961Y-67430952D01*
X112731961Y-67430952D02*
X112827200Y-67526190D01*
X112827200Y-67526190D02*
X112874819Y-67669047D01*
X112874819Y-67669047D02*
X112874819Y-67764285D01*
X112874819Y-66859523D02*
X112874819Y-66669047D01*
X112874819Y-66669047D02*
X112827200Y-66573809D01*
X112827200Y-66573809D02*
X112779580Y-66526190D01*
X112779580Y-66526190D02*
X112636723Y-66430952D01*
X112636723Y-66430952D02*
X112446247Y-66383333D01*
X112446247Y-66383333D02*
X112065295Y-66383333D01*
X112065295Y-66383333D02*
X111970057Y-66430952D01*
X111970057Y-66430952D02*
X111922438Y-66478571D01*
X111922438Y-66478571D02*
X111874819Y-66573809D01*
X111874819Y-66573809D02*
X111874819Y-66764285D01*
X111874819Y-66764285D02*
X111922438Y-66859523D01*
X111922438Y-66859523D02*
X111970057Y-66907142D01*
X111970057Y-66907142D02*
X112065295Y-66954761D01*
X112065295Y-66954761D02*
X112303390Y-66954761D01*
X112303390Y-66954761D02*
X112398628Y-66907142D01*
X112398628Y-66907142D02*
X112446247Y-66859523D01*
X112446247Y-66859523D02*
X112493866Y-66764285D01*
X112493866Y-66764285D02*
X112493866Y-66573809D01*
X112493866Y-66573809D02*
X112446247Y-66478571D01*
X112446247Y-66478571D02*
X112398628Y-66430952D01*
X112398628Y-66430952D02*
X112303390Y-66383333D01*
X54754819Y-100659523D02*
X55469104Y-100659523D01*
X55469104Y-100659523D02*
X55611961Y-100707142D01*
X55611961Y-100707142D02*
X55707200Y-100802380D01*
X55707200Y-100802380D02*
X55754819Y-100945237D01*
X55754819Y-100945237D02*
X55754819Y-101040475D01*
X55754819Y-99659523D02*
X55754819Y-100230951D01*
X55754819Y-99945237D02*
X54754819Y-99945237D01*
X54754819Y-99945237D02*
X54897676Y-100040475D01*
X54897676Y-100040475D02*
X54992914Y-100135713D01*
X54992914Y-100135713D02*
X55040533Y-100230951D01*
X54754819Y-99040475D02*
X54754819Y-98945237D01*
X54754819Y-98945237D02*
X54802438Y-98849999D01*
X54802438Y-98849999D02*
X54850057Y-98802380D01*
X54850057Y-98802380D02*
X54945295Y-98754761D01*
X54945295Y-98754761D02*
X55135771Y-98707142D01*
X55135771Y-98707142D02*
X55373866Y-98707142D01*
X55373866Y-98707142D02*
X55564342Y-98754761D01*
X55564342Y-98754761D02*
X55659580Y-98802380D01*
X55659580Y-98802380D02*
X55707200Y-98849999D01*
X55707200Y-98849999D02*
X55754819Y-98945237D01*
X55754819Y-98945237D02*
X55754819Y-99040475D01*
X55754819Y-99040475D02*
X55707200Y-99135713D01*
X55707200Y-99135713D02*
X55659580Y-99183332D01*
X55659580Y-99183332D02*
X55564342Y-99230951D01*
X55564342Y-99230951D02*
X55373866Y-99278570D01*
X55373866Y-99278570D02*
X55135771Y-99278570D01*
X55135771Y-99278570D02*
X54945295Y-99230951D01*
X54945295Y-99230951D02*
X54850057Y-99183332D01*
X54850057Y-99183332D02*
X54802438Y-99135713D01*
X54802438Y-99135713D02*
X54754819Y-99040475D01*
X113332142Y-111029819D02*
X112998809Y-110553628D01*
X112760714Y-111029819D02*
X112760714Y-110029819D01*
X112760714Y-110029819D02*
X113141666Y-110029819D01*
X113141666Y-110029819D02*
X113236904Y-110077438D01*
X113236904Y-110077438D02*
X113284523Y-110125057D01*
X113284523Y-110125057D02*
X113332142Y-110220295D01*
X113332142Y-110220295D02*
X113332142Y-110363152D01*
X113332142Y-110363152D02*
X113284523Y-110458390D01*
X113284523Y-110458390D02*
X113236904Y-110506009D01*
X113236904Y-110506009D02*
X113141666Y-110553628D01*
X113141666Y-110553628D02*
X112760714Y-110553628D01*
X114284523Y-111029819D02*
X113713095Y-111029819D01*
X113998809Y-111029819D02*
X113998809Y-110029819D01*
X113998809Y-110029819D02*
X113903571Y-110172676D01*
X113903571Y-110172676D02*
X113808333Y-110267914D01*
X113808333Y-110267914D02*
X113713095Y-110315533D01*
X115189285Y-110029819D02*
X114713095Y-110029819D01*
X114713095Y-110029819D02*
X114665476Y-110506009D01*
X114665476Y-110506009D02*
X114713095Y-110458390D01*
X114713095Y-110458390D02*
X114808333Y-110410771D01*
X114808333Y-110410771D02*
X115046428Y-110410771D01*
X115046428Y-110410771D02*
X115141666Y-110458390D01*
X115141666Y-110458390D02*
X115189285Y-110506009D01*
X115189285Y-110506009D02*
X115236904Y-110601247D01*
X115236904Y-110601247D02*
X115236904Y-110839342D01*
X115236904Y-110839342D02*
X115189285Y-110934580D01*
X115189285Y-110934580D02*
X115141666Y-110982200D01*
X115141666Y-110982200D02*
X115046428Y-111029819D01*
X115046428Y-111029819D02*
X114808333Y-111029819D01*
X114808333Y-111029819D02*
X114713095Y-110982200D01*
X114713095Y-110982200D02*
X114665476Y-110934580D01*
X45351666Y-85279819D02*
X45351666Y-85994104D01*
X45351666Y-85994104D02*
X45304047Y-86136961D01*
X45304047Y-86136961D02*
X45208809Y-86232200D01*
X45208809Y-86232200D02*
X45065952Y-86279819D01*
X45065952Y-86279819D02*
X44970714Y-86279819D01*
X46351666Y-86279819D02*
X45780238Y-86279819D01*
X46065952Y-86279819D02*
X46065952Y-85279819D01*
X46065952Y-85279819D02*
X45970714Y-85422676D01*
X45970714Y-85422676D02*
X45875476Y-85517914D01*
X45875476Y-85517914D02*
X45780238Y-85565533D01*
D13*
%TO.C,R14*%
X60827064Y-81490000D02*
X60372936Y-81490000D01*
X60827064Y-82960000D02*
X60372936Y-82960000D01*
%TO.C,R7*%
X59322936Y-103265000D02*
X59777064Y-103265000D01*
X59322936Y-104735000D02*
X59777064Y-104735000D01*
%TO.C,C4*%
X81788748Y-86865000D02*
X82311252Y-86865000D01*
X81788748Y-88335000D02*
X82311252Y-88335000D01*
%TO.C,R8*%
X45930000Y-114442358D02*
X45930000Y-114755000D01*
X45930000Y-123515000D02*
X45930000Y-117515000D01*
X46790000Y-114442358D02*
X46790000Y-114755000D01*
X46790000Y-117515000D02*
X46790000Y-123515000D01*
X46790000Y-123515000D02*
X45930000Y-123515000D01*
X47630000Y-114755000D02*
X47630000Y-117515000D01*
X48470000Y-114525000D02*
X48470000Y-114755000D01*
X48900000Y-112095000D02*
X50170000Y-112095000D01*
X49330000Y-114525000D02*
X49330000Y-114755000D01*
X50170000Y-112095000D02*
X50170000Y-113365000D01*
X49330000Y-117515000D02*
X48470000Y-117515000D01*
X48470000Y-123515000D01*
X49330000Y-123515000D01*
X49330000Y-117515000D01*
G36*
X49330000Y-117515000D02*
G01*
X48470000Y-117515000D01*
X48470000Y-123515000D01*
X49330000Y-123515000D01*
X49330000Y-117515000D01*
G37*
X50280000Y-114755000D02*
X44980000Y-114755000D01*
X44980000Y-117515000D01*
X50280000Y-117515000D01*
X50280000Y-114755000D01*
%TO.C,C3*%
X80065000Y-94388748D02*
X80065000Y-94911252D01*
X81535000Y-94388748D02*
X81535000Y-94911252D01*
%TO.C,R12*%
X114977064Y-62015000D02*
X114522936Y-62015000D01*
X114977064Y-63485000D02*
X114522936Y-63485000D01*
%TO.C,R4*%
X74715000Y-111289564D02*
X74715000Y-110835436D01*
X76185000Y-111289564D02*
X76185000Y-110835436D01*
%TO.C,R10*%
X51165000Y-99277064D02*
X51165000Y-98822936D01*
X52635000Y-99277064D02*
X52635000Y-98822936D01*
%TO.C,J5*%
X113370000Y-60380000D02*
X113370000Y-59000000D01*
X114750000Y-60380000D02*
X113370000Y-60380000D01*
X116020000Y-57620000D02*
X116130000Y-57620000D01*
X116020000Y-60380000D02*
X116020000Y-57620000D01*
X116020000Y-60380000D02*
X116130000Y-60380000D01*
X116130000Y-60380000D02*
X116130000Y-57620000D01*
%TO.C,J2*%
X76660000Y-106430000D02*
X76660000Y-105050000D01*
X78040000Y-106430000D02*
X76660000Y-106430000D01*
X79310000Y-103670000D02*
X84500000Y-103670000D01*
X79310000Y-106430000D02*
X79310000Y-103670000D01*
X79310000Y-106430000D02*
X84500000Y-106430000D01*
X84500000Y-106430000D02*
X84500000Y-103670000D01*
%TO.C,SW1*%
X64450000Y-108700000D02*
X64450000Y-113200000D01*
X66950000Y-114450000D02*
X68450000Y-114450000D01*
X68450000Y-107450000D02*
X66950000Y-107450000D01*
X70950000Y-113200000D02*
X70950000Y-108700000D01*
%TO.C,J11*%
X46220000Y-102130000D02*
X46220000Y-100750000D01*
X47600000Y-102130000D02*
X46220000Y-102130000D01*
X48870000Y-99370000D02*
X48980000Y-99370000D01*
X48870000Y-102130000D02*
X48870000Y-99370000D01*
X48870000Y-102130000D02*
X48980000Y-102130000D01*
X48980000Y-102130000D02*
X48980000Y-99370000D01*
%TO.C,J6*%
X44200000Y-48025000D02*
X44200000Y-76025000D01*
X44200000Y-76025000D02*
X110200000Y-76025000D01*
X44855000Y-67165000D02*
X44855000Y-56885000D01*
X47455000Y-64565000D02*
X47455000Y-67165000D01*
X47455000Y-67165000D02*
X44855000Y-67165000D01*
X50055000Y-56885000D02*
X44855000Y-56885000D01*
X50055000Y-64565000D02*
X47455000Y-64565000D01*
X50055000Y-64565000D02*
X50055000Y-56885000D01*
X50055000Y-65835000D02*
X50055000Y-67165000D01*
X50055000Y-67165000D02*
X48725000Y-67165000D01*
X110200000Y-48025000D02*
X44200000Y-48025000D01*
X110200000Y-76025000D02*
X110200000Y-48025000D01*
%TO.C,R13*%
X115077064Y-55065000D02*
X114622936Y-55065000D01*
X115077064Y-56535000D02*
X114622936Y-56535000D01*
%TO.C,Y1*%
X79345000Y-89545000D02*
X79035000Y-89545000D01*
X79345000Y-91445000D02*
X79035000Y-91445000D01*
X80215000Y-88985000D02*
X81315000Y-88985000D01*
X80215000Y-90145000D02*
X79345000Y-89545000D01*
X80215000Y-90845000D02*
X79345000Y-91445000D01*
X80215000Y-92005000D02*
X80215000Y-88985000D01*
X81315000Y-92005000D02*
X80215000Y-92005000D01*
%TO.C,RV1*%
X44690000Y-78115000D02*
X44690000Y-78365000D01*
X44690000Y-83825000D02*
X44690000Y-80285000D01*
X44790000Y-77915000D02*
X44790000Y-78115000D01*
X44790000Y-77915000D02*
X46210000Y-77915000D01*
X44790000Y-78115000D02*
X44690000Y-78115000D01*
X46210000Y-78115000D02*
X46210000Y-77915000D01*
X46210000Y-78115000D02*
X49790000Y-78115000D01*
X47490000Y-85135000D02*
X46000000Y-85135000D01*
X49790000Y-77915000D02*
X51210000Y-77915000D01*
X49790000Y-78115000D02*
X49790000Y-77915000D01*
X50000000Y-85135000D02*
X48510000Y-85135000D01*
X51210000Y-77915000D02*
X51210000Y-78115000D01*
X51210000Y-78115000D02*
X51310000Y-78115000D01*
X51310000Y-78115000D02*
X51310000Y-78805000D01*
X51310000Y-79845000D02*
X51310000Y-83825000D01*
X46000000Y-85135000D02*
G75*
G02*
X44690000Y-83825000I0J1310000D01*
G01*
X51310000Y-83825000D02*
G75*
G02*
X50000000Y-85135000I-1310000J0D01*
G01*
%TO.C,U1*%
X89430000Y-82640000D02*
X89495000Y-82640000D01*
X89430000Y-86760000D02*
X89430000Y-82640000D01*
X89495000Y-86760000D02*
X89430000Y-86760000D01*
X98235000Y-82640000D02*
X98300000Y-82640000D01*
X98300000Y-82640000D02*
X98300000Y-86760000D01*
X98300000Y-86760000D02*
X98235000Y-86760000D01*
X98565000Y-82340000D02*
X98235000Y-82100000D01*
X98565000Y-81860000D01*
X98565000Y-82340000D01*
G36*
X98565000Y-82340000D02*
G01*
X98235000Y-82100000D01*
X98565000Y-81860000D01*
X98565000Y-82340000D01*
G37*
%TO.C,SW3*%
X55050000Y-108675000D02*
X55050000Y-113175000D01*
X57550000Y-114425000D02*
X59050000Y-114425000D01*
X59050000Y-107425000D02*
X57550000Y-107425000D01*
X61550000Y-113175000D02*
X61550000Y-108675000D01*
%TO.C,J8*%
X71805000Y-50035000D02*
X71805000Y-55374999D01*
X71805000Y-55374999D02*
X89845000Y-55375000D01*
X89485000Y-51815001D02*
X89845000Y-51815001D01*
X89485000Y-53595000D02*
X89485000Y-51815001D01*
X89845000Y-50035001D02*
X71805000Y-50035000D01*
X89845000Y-51815001D02*
X89845000Y-50035001D01*
X89845000Y-53595000D02*
X89485000Y-53595000D01*
X89845000Y-55375000D02*
X89845000Y-53595000D01*
%TO.C,D1*%
X63665000Y-81265000D02*
X63665000Y-83185000D01*
X63665000Y-83185000D02*
X66525000Y-83185000D01*
X66525000Y-81265000D02*
X63665000Y-81265000D01*
%TO.C,C1*%
X71815000Y-110788748D02*
X71815000Y-111311252D01*
X73285000Y-110788748D02*
X73285000Y-111311252D01*
%TO.C,SW2*%
X77500000Y-42700000D02*
X77500000Y-44200000D01*
X78750000Y-46700000D02*
X83250000Y-46700000D01*
X83250000Y-40200000D02*
X78750000Y-40200000D01*
X84500000Y-44200000D02*
X84500000Y-42700000D01*
%TO.C,C2*%
X76140000Y-94723748D02*
X76140000Y-95246252D01*
X77610000Y-94723748D02*
X77610000Y-95246252D01*
%TO.C,R9*%
X52975000Y-79917064D02*
X52975000Y-79462936D01*
X54445000Y-79917064D02*
X54445000Y-79462936D01*
%TO.C,R5*%
X80307064Y-100455000D02*
X79852936Y-100455000D01*
X80307064Y-101925000D02*
X79852936Y-101925000D01*
%TO.C,J4*%
X102920000Y-115180000D02*
X102920000Y-113800000D01*
X104300000Y-115180000D02*
X102920000Y-115180000D01*
X105570000Y-112420000D02*
X108220000Y-112420000D01*
X105570000Y-115180000D02*
X105570000Y-112420000D01*
X105570000Y-115180000D02*
X108220000Y-115180000D01*
X108220000Y-115180000D02*
X108220000Y-112420000D01*
%TO.C,R6*%
X88835000Y-42527064D02*
X88835000Y-42072936D01*
X90305000Y-42527064D02*
X90305000Y-42072936D01*
%TO.C,RV2*%
X110490000Y-78390000D02*
X110490000Y-78640000D01*
X110490000Y-84100000D02*
X110490000Y-80560000D01*
X110590000Y-78190000D02*
X110590000Y-78390000D01*
X110590000Y-78190000D02*
X112010000Y-78190000D01*
X110590000Y-78390000D02*
X110490000Y-78390000D01*
X112010000Y-78390000D02*
X112010000Y-78190000D01*
X112010000Y-78390000D02*
X115590000Y-78390000D01*
X113290000Y-85410000D02*
X111800000Y-85410000D01*
X115590000Y-78190000D02*
X117010000Y-78190000D01*
X115590000Y-78390000D02*
X115590000Y-78190000D01*
X115800000Y-85410000D02*
X114310000Y-85410000D01*
X117010000Y-78190000D02*
X117010000Y-78390000D01*
X117010000Y-78390000D02*
X117110000Y-78390000D01*
X117110000Y-78390000D02*
X117110000Y-79080000D01*
X117110000Y-80120000D02*
X117110000Y-84100000D01*
X111800000Y-85410000D02*
G75*
G02*
X110490000Y-84100000I0J1310000D01*
G01*
X117110000Y-84100000D02*
G75*
G02*
X115800000Y-85410000I-1310000J0D01*
G01*
%TO.C,R3*%
X101985436Y-88140000D02*
X102439564Y-88140000D01*
X101985436Y-89610000D02*
X102439564Y-89610000D01*
%TO.C,J7*%
X46150000Y-106570000D02*
X46150000Y-105190000D01*
X47530000Y-106570000D02*
X46150000Y-106570000D01*
X48800000Y-103810000D02*
X48910000Y-103810000D01*
X48800000Y-106570000D02*
X48800000Y-103810000D01*
X48800000Y-106570000D02*
X48910000Y-106570000D01*
X48910000Y-106570000D02*
X48910000Y-103810000D01*
%TO.C,J3*%
X113620000Y-53480000D02*
X113620000Y-52100000D01*
X115000000Y-53480000D02*
X113620000Y-53480000D01*
X116270000Y-50720000D02*
X116380000Y-50720000D01*
X116270000Y-53480000D02*
X116270000Y-50720000D01*
X116270000Y-53480000D02*
X116380000Y-53480000D01*
X116380000Y-53480000D02*
X116380000Y-50720000D01*
%TO.C,R2*%
X102489564Y-84490000D02*
X102035436Y-84490000D01*
X102489564Y-85960000D02*
X102035436Y-85960000D01*
%TO.C,R1*%
X102085436Y-81090000D02*
X102539564Y-81090000D01*
X102085436Y-82560000D02*
X102539564Y-82560000D01*
D14*
%TO.C,S1*%
X88200000Y-100075000D02*
X88200000Y-100075000D01*
X88200000Y-100075000D02*
X88200000Y-106075000D01*
X88200000Y-106075000D02*
X88200000Y-100075000D01*
X88200000Y-106075000D02*
X88200000Y-106075000D01*
X90025000Y-93375000D02*
X90025000Y-93375000D01*
X90025000Y-93375000D02*
X90025000Y-96500000D01*
X90025000Y-96500000D02*
X90025000Y-93375000D01*
X90025000Y-96500000D02*
X90025000Y-96500000D01*
X90025000Y-96500000D02*
X90025000Y-96500000D01*
X90025000Y-96500000D02*
X99525000Y-96500000D01*
X90525000Y-96500000D02*
X90525000Y-96500000D01*
X90525000Y-96500000D02*
X99025000Y-96500000D01*
X93275000Y-109650000D02*
X93275000Y-109650000D01*
X93275000Y-109650000D02*
X96275000Y-109650000D01*
X96275000Y-109650000D02*
X93275000Y-109650000D01*
X96275000Y-109650000D02*
X96275000Y-109650000D01*
D10*
X97275000Y-92365000D02*
X97275000Y-92365000D01*
X97275000Y-92475000D02*
X97275000Y-92475000D01*
X97275000Y-92475000D02*
X97275000Y-92475000D01*
D14*
X99025000Y-96500000D02*
X90525000Y-96500000D01*
X99025000Y-96500000D02*
X99025000Y-96500000D01*
X99525000Y-93375000D02*
X99525000Y-93375000D01*
X99525000Y-93375000D02*
X99525000Y-96500000D01*
X99525000Y-96500000D02*
X90025000Y-96500000D01*
X99525000Y-96500000D02*
X99525000Y-93375000D01*
X99525000Y-96500000D02*
X99525000Y-96500000D01*
X99525000Y-96500000D02*
X99525000Y-96500000D01*
X101350000Y-100075000D02*
X101350000Y-100075000D01*
X101350000Y-100075000D02*
X101350000Y-100075000D01*
X101350000Y-100075000D02*
X101350000Y-106075000D01*
X101350000Y-100075000D02*
X101350000Y-106075000D01*
X101350000Y-106075000D02*
X101350000Y-100075000D01*
X101350000Y-106075000D02*
X101350000Y-100075000D01*
X101350000Y-106075000D02*
X101350000Y-106075000D01*
X101350000Y-106075000D02*
X101350000Y-106075000D01*
X103100000Y-98325000D02*
X103100000Y-98325000D01*
X103100000Y-98325000D02*
X104475000Y-98325000D01*
X103100000Y-107825000D02*
X103100000Y-107825000D01*
X103100000Y-107825000D02*
X104475000Y-107825000D01*
X104475000Y-98325000D02*
X103100000Y-98325000D01*
X104475000Y-98325000D02*
X104475000Y-98325000D01*
X104475000Y-107825000D02*
X103100000Y-107825000D01*
X104475000Y-107825000D02*
X104475000Y-107825000D01*
D10*
X97275000Y-92365000D02*
G75*
G02*
X97275000Y-92475000I0J-55000D01*
G01*
X97275000Y-92365000D02*
G75*
G02*
X97275000Y-92475000I0J-55000D01*
G01*
X97275000Y-92475000D02*
G75*
G02*
X97275000Y-92365000I0J55000D01*
G01*
%TO.C,IC1*%
X63700000Y-88408000D02*
X70000000Y-88408000D01*
X63700000Y-94708000D02*
X63700000Y-88408000D01*
X70000000Y-88408000D02*
X70000000Y-94708000D01*
X70000000Y-94708000D02*
X63700000Y-94708000D01*
D15*
X71700000Y-95058000D02*
G75*
G02*
X71450000Y-95058000I-125000J0D01*
G01*
X71450000Y-95058000D02*
G75*
G02*
X71700000Y-95058000I125000J0D01*
G01*
D13*
%TO.C,J9*%
X113420000Y-68430000D02*
X113420000Y-67050000D01*
X114800000Y-68430000D02*
X113420000Y-68430000D01*
X116070000Y-65670000D02*
X116180000Y-65670000D01*
X116070000Y-68430000D02*
X116070000Y-65670000D01*
X116070000Y-68430000D02*
X116180000Y-68430000D01*
X116180000Y-68430000D02*
X116180000Y-65670000D01*
%TO.C,J10*%
X56320000Y-101930000D02*
X56320000Y-100550000D01*
X57700000Y-101930000D02*
X56320000Y-101930000D01*
X58970000Y-99170000D02*
X59080000Y-99170000D01*
X58970000Y-101930000D02*
X58970000Y-99170000D01*
X58970000Y-101930000D02*
X59080000Y-101930000D01*
X59080000Y-101930000D02*
X59080000Y-99170000D01*
%TO.C,R15*%
X112205000Y-114217358D02*
X112205000Y-114530000D01*
X112205000Y-123290000D02*
X112205000Y-117290000D01*
X113065000Y-114217358D02*
X113065000Y-114530000D01*
X113065000Y-117290000D02*
X113065000Y-123290000D01*
X113065000Y-123290000D02*
X112205000Y-123290000D01*
X113905000Y-114530000D02*
X113905000Y-117290000D01*
X114745000Y-114300000D02*
X114745000Y-114530000D01*
X115175000Y-111870000D02*
X116445000Y-111870000D01*
X115605000Y-114300000D02*
X115605000Y-114530000D01*
X116445000Y-111870000D02*
X116445000Y-113140000D01*
X115605000Y-117290000D02*
X114745000Y-117290000D01*
X114745000Y-123290000D01*
X115605000Y-123290000D01*
X115605000Y-117290000D01*
G36*
X115605000Y-117290000D02*
G01*
X114745000Y-117290000D01*
X114745000Y-123290000D01*
X115605000Y-123290000D01*
X115605000Y-117290000D01*
G37*
X116555000Y-114530000D02*
X111255000Y-114530000D01*
X111255000Y-117290000D01*
X116555000Y-117290000D01*
X116555000Y-114530000D01*
%TO.C,J1*%
X44880000Y-86920000D02*
X46260000Y-86920000D01*
X44880000Y-88300000D02*
X44880000Y-86920000D01*
X44880000Y-89570000D02*
X44880000Y-97300000D01*
X44880000Y-89570000D02*
X47530000Y-89570000D01*
X44880000Y-97300000D02*
X50180000Y-97300000D01*
X47530000Y-86920000D02*
X50180000Y-86920000D01*
X47530000Y-89570000D02*
X47530000Y-86920000D01*
X50180000Y-86920000D02*
X50180000Y-97300000D01*
%TD*%
M02*
