%TF.GenerationSoftware,KiCad,Pcbnew,9.0.7*%
%TF.CreationDate,2026-03-20T19:26:42+01:00*%
%TF.ProjectId,PCB_MiSE,5043425f-4d69-4534-952e-6b696361645f,rev?*%
%TF.SameCoordinates,Original*%
%TF.FileFunction,Soldermask,Top*%
%TF.FilePolarity,Negative*%
%FSLAX46Y46*%
G04 Gerber Fmt 4.6, Leading zero omitted, Abs format (unit mm)*
G04 Created by KiCad (PCBNEW 9.0.7) date 2026-03-20 19:26:42*
%MOMM*%
%LPD*%
G01*
G04 APERTURE LIST*
G04 Aperture macros list*
%AMRoundRect*
0 Rectangle with rounded corners*
0 $1 Rounding radius*
0 $2 $3 $4 $5 $6 $7 $8 $9 X,Y pos of 4 corners*
0 Add a 4 corners polygon primitive as box body*
4,1,4,$2,$3,$4,$5,$6,$7,$8,$9,$2,$3,0*
0 Add four circle primitives for the rounded corners*
1,1,$1+$1,$2,$3*
1,1,$1+$1,$4,$5*
1,1,$1+$1,$6,$7*
1,1,$1+$1,$8,$9*
0 Add four rect primitives between the rounded corners*
20,1,$1+$1,$2,$3,$4,$5,0*
20,1,$1+$1,$4,$5,$6,$7,0*
20,1,$1+$1,$6,$7,$8,$9,0*
20,1,$1+$1,$8,$9,$2,$3,0*%
G04 Aperture macros list end*
%ADD10RoundRect,0.250000X0.350000X0.450000X-0.350000X0.450000X-0.350000X-0.450000X0.350000X-0.450000X0*%
%ADD11RoundRect,0.250000X-0.350000X-0.450000X0.350000X-0.450000X0.350000X0.450000X-0.350000X0.450000X0*%
%ADD12RoundRect,0.250000X-0.337500X-0.475000X0.337500X-0.475000X0.337500X0.475000X-0.337500X0.475000X0*%
%ADD13R,1.700000X1.700000*%
%ADD14C,1.700000*%
%ADD15RoundRect,0.250000X-0.475000X0.337500X-0.475000X-0.337500X0.475000X-0.337500X0.475000X0.337500X0*%
%ADD16RoundRect,0.250000X0.450000X-0.350000X0.450000X0.350000X-0.450000X0.350000X-0.450000X-0.350000X0*%
%ADD17C,2.000000*%
%ADD18R,1.800000X1.700000*%
%ADD19RoundRect,0.425000X0.475000X0.425000X-0.475000X0.425000X-0.475000X-0.425000X0.475000X-0.425000X0*%
%ADD20C,4.000000*%
%ADD21C,1.000000*%
%ADD22RoundRect,0.250000X2.750000X-1.000000X2.750000X1.000000X-2.750000X1.000000X-2.750000X-1.000000X0*%
%ADD23R,1.560000X1.560000*%
%ADD24C,1.560000*%
%ADD25RoundRect,0.150000X-0.150000X0.825000X-0.150000X-0.825000X0.150000X-0.825000X0.150000X0.825000X0*%
%ADD26RoundRect,0.250000X0.650000X0.650000X-0.650000X0.650000X-0.650000X-0.650000X0.650000X-0.650000X0*%
%ADD27C,1.800000*%
%ADD28C,3.500000*%
%ADD29RoundRect,0.250000X-0.325000X-0.450000X0.325000X-0.450000X0.325000X0.450000X-0.325000X0.450000X0*%
%ADD30C,1.650000*%
%ADD31C,1.950000*%
%ADD32C,2.400000*%
%ADD33R,1.475000X0.300000*%
%ADD34R,0.300000X1.475000*%
G04 APERTURE END LIST*
D10*
%TO.C,R14*%
X61600000Y-82225000D03*
X59600000Y-82225000D03*
%TD*%
D11*
%TO.C,R7*%
X58550000Y-104000000D03*
X60550000Y-104000000D03*
%TD*%
D12*
%TO.C,C4*%
X81012500Y-87600000D03*
X83087500Y-87600000D03*
%TD*%
D13*
%TO.C,R8*%
X48900000Y-113365000D03*
D14*
X46360000Y-113365000D03*
%TD*%
D15*
%TO.C,C3*%
X80800000Y-93612500D03*
X80800000Y-95687500D03*
%TD*%
D10*
%TO.C,R12*%
X115750000Y-62750000D03*
X113750000Y-62750000D03*
%TD*%
D16*
%TO.C,R4*%
X75450000Y-112062500D03*
X75450000Y-110062500D03*
%TD*%
%TO.C,R10*%
X51900000Y-100050000D03*
X51900000Y-98050000D03*
%TD*%
D13*
%TO.C,J5*%
X114750000Y-59000000D03*
%TD*%
%TO.C,J2*%
X78040000Y-105050000D03*
D14*
X80580000Y-105050000D03*
X83120000Y-105050000D03*
%TD*%
D17*
%TO.C,SW1*%
X65450000Y-114200000D03*
X65450000Y-107700000D03*
X69950000Y-114200000D03*
X69950000Y-107700000D03*
%TD*%
D13*
%TO.C,J11*%
X47600000Y-100750000D03*
%TD*%
D18*
%TO.C,J6*%
X48725000Y-65835000D03*
D19*
X46185000Y-65835000D03*
X48725000Y-63295000D03*
X46185000Y-63295000D03*
X48725000Y-60755000D03*
X46185000Y-60755000D03*
X48725000Y-58215000D03*
X46185000Y-58215000D03*
D20*
X46700000Y-50625000D03*
X107700000Y-50625000D03*
X107700000Y-73625000D03*
X46700000Y-73625000D03*
%TD*%
D10*
%TO.C,R13*%
X115850000Y-55800000D03*
X113850000Y-55800000D03*
%TD*%
D21*
%TO.C,Y1*%
X78475000Y-91445000D03*
X78475000Y-89545000D03*
D22*
X83975000Y-90495000D03*
%TD*%
D23*
%TO.C,RV1*%
X45500000Y-79325000D03*
D24*
X48000000Y-84325000D03*
X50500000Y-79325000D03*
%TD*%
D25*
%TO.C,U1*%
X97675000Y-82225000D03*
X96405000Y-82225000D03*
X95135000Y-82225000D03*
X93865000Y-82225000D03*
X92595000Y-82225000D03*
X91325000Y-82225000D03*
X90055000Y-82225000D03*
X90055000Y-87175000D03*
X91325000Y-87175000D03*
X92595000Y-87175000D03*
X93865000Y-87175000D03*
X95135000Y-87175000D03*
X96405000Y-87175000D03*
X97675000Y-87175000D03*
%TD*%
D17*
%TO.C,SW3*%
X60550000Y-107675000D03*
X60550000Y-114175000D03*
X56050000Y-107675000D03*
X56050000Y-114175000D03*
%TD*%
D26*
%TO.C,J8*%
X88445000Y-51435000D03*
D27*
X88445000Y-53975000D03*
X85905000Y-51435000D03*
X85905000Y-53975000D03*
X83365000Y-51435000D03*
X83365000Y-53975000D03*
X80825000Y-51435000D03*
X80825000Y-53975000D03*
X78285000Y-51435000D03*
X78285000Y-53975000D03*
X75745000Y-51435000D03*
X75745000Y-53975000D03*
X73205000Y-51435000D03*
X73205000Y-53975000D03*
D28*
X80825000Y-113975000D03*
X53825000Y-83975000D03*
X107825000Y-83975000D03*
X45825000Y-41975000D03*
X115825000Y-41975000D03*
%TD*%
D29*
%TO.C,D1*%
X64500000Y-82225000D03*
X66550000Y-82225000D03*
%TD*%
D15*
%TO.C,C1*%
X72550000Y-110012500D03*
X72550000Y-112087500D03*
%TD*%
D17*
%TO.C,SW2*%
X77750000Y-41200000D03*
X84250000Y-41200000D03*
X77750000Y-45700000D03*
X84250000Y-45700000D03*
%TD*%
D15*
%TO.C,C2*%
X76875000Y-93947500D03*
X76875000Y-96022500D03*
%TD*%
D16*
%TO.C,R9*%
X53710000Y-80690000D03*
X53710000Y-78690000D03*
%TD*%
D10*
%TO.C,R5*%
X81080000Y-101190000D03*
X79080000Y-101190000D03*
%TD*%
D13*
%TO.C,J4*%
X104300000Y-113800000D03*
D14*
X106840000Y-113800000D03*
%TD*%
D16*
%TO.C,R6*%
X89570000Y-43300000D03*
X89570000Y-41300000D03*
%TD*%
D23*
%TO.C,RV2*%
X111300000Y-79600000D03*
D24*
X113800000Y-84600000D03*
X116300000Y-79600000D03*
%TD*%
D11*
%TO.C,R3*%
X101212500Y-88875000D03*
X103212500Y-88875000D03*
%TD*%
D13*
%TO.C,J7*%
X47530000Y-105190000D03*
%TD*%
%TO.C,J3*%
X115000000Y-52100000D03*
%TD*%
D10*
%TO.C,R2*%
X103262500Y-85225000D03*
X101262500Y-85225000D03*
%TD*%
D11*
%TO.C,R1*%
X101312500Y-81825000D03*
X103312500Y-81825000D03*
%TD*%
D30*
%TO.C,S1*%
X97275000Y-94345000D03*
X94775000Y-94345000D03*
X92275000Y-94345000D03*
X103505000Y-105575000D03*
X103505000Y-103075000D03*
X103505000Y-100575000D03*
D31*
X91525000Y-108825000D03*
X98025000Y-108825000D03*
X91525000Y-113325000D03*
X98025000Y-113325000D03*
D32*
X101100000Y-98075000D03*
X88450000Y-98075000D03*
X88450000Y-108075000D03*
X101100000Y-108075000D03*
%TD*%
D33*
%TO.C,IC1*%
X71088000Y-94308000D03*
X71088000Y-93808000D03*
X71088000Y-93308000D03*
X71088000Y-92808000D03*
X71088000Y-92308000D03*
X71088000Y-91808000D03*
X71088000Y-91308000D03*
X71088000Y-90808000D03*
X71088000Y-90308000D03*
X71088000Y-89808000D03*
X71088000Y-89308000D03*
X71088000Y-88808000D03*
D34*
X69600000Y-87320000D03*
X69100000Y-87320000D03*
X68600000Y-87320000D03*
X68100000Y-87320000D03*
X67600000Y-87320000D03*
X67100000Y-87320000D03*
X66600000Y-87320000D03*
X66100000Y-87320000D03*
X65600000Y-87320000D03*
X65100000Y-87320000D03*
X64600000Y-87320000D03*
X64100000Y-87320000D03*
D33*
X62612000Y-88808000D03*
X62612000Y-89308000D03*
X62612000Y-89808000D03*
X62612000Y-90308000D03*
X62612000Y-90808000D03*
X62612000Y-91308000D03*
X62612000Y-91808000D03*
X62612000Y-92308000D03*
X62612000Y-92808000D03*
X62612000Y-93308000D03*
X62612000Y-93808000D03*
X62612000Y-94308000D03*
D34*
X64100000Y-95796000D03*
X64600000Y-95796000D03*
X65100000Y-95796000D03*
X65600000Y-95796000D03*
X66100000Y-95796000D03*
X66600000Y-95796000D03*
X67100000Y-95796000D03*
X67600000Y-95796000D03*
X68100000Y-95796000D03*
X68600000Y-95796000D03*
X69100000Y-95796000D03*
X69600000Y-95796000D03*
%TD*%
D13*
%TO.C,J9*%
X114800000Y-67050000D03*
%TD*%
%TO.C,J10*%
X57700000Y-100550000D03*
%TD*%
%TO.C,R15*%
X115175000Y-113140000D03*
D14*
X112635000Y-113140000D03*
%TD*%
D13*
%TO.C,J1*%
X46260000Y-88300000D03*
D14*
X48800000Y-88300000D03*
X46260000Y-90840000D03*
X48800000Y-90840000D03*
X46260000Y-93380000D03*
X48800000Y-93380000D03*
X46260000Y-95920000D03*
X48800000Y-95920000D03*
%TD*%
M02*
