M48
; DRILL file {KiCad 9.0.7} date 2026-03-20T19:26:40+0100
; FORMAT={-:-/ absolute / metric / decimal}
; #@! TF.CreationDate,2026-03-20T19:26:40+01:00
; #@! TF.GenerationSoftware,Kicad,Pcbnew,9.0.7
; #@! TF.FileFunction,Plated,1,2,PTH
FMAT,2
METRIC
; #@! TA.AperFunction,Plated,PTH,ViaDrill
T1C0.600
; #@! TA.AperFunction,Plated,PTH,ComponentDrill
T2C0.600
; #@! TA.AperFunction,Plated,PTH,ComponentDrill
T3C1.000
; #@! TA.AperFunction,Plated,PTH,ComponentDrill
T4C1.100
; #@! TA.AperFunction,Plated,PTH,ComponentDrill
T5C1.300
; #@! TA.AperFunction,Plated,PTH,ComponentDrill
T6C1.600
; #@! TA.AperFunction,Plated,PTH,ComponentDrill
T7C2.500
; #@! TA.AperFunction,Plated,PTH,ComponentDrill
T8C3.000
%
G90
G05
T1
X53.65Y-69.25
X54.34Y-66.59
X55.8Y-92.3
X57.47Y-89.95
X58.58Y-71.42
X58.737Y-87.862
X59.55Y-80.6
X60.25Y-93.3
X61.45Y-49.65
X62.5Y-95.85
X65.6Y-85.045
X66.125Y-89.145
X66.45Y-49.65
X67.575Y-85.22
X67.596Y-93.62
X67.75Y-91.3
X68.7Y-90.05
X68.9Y-92.35
X69.3Y-100.95
X69.55Y-84.35
X70.1Y-100.05
X70.9Y-95.775
X72.6Y-114.487
X72.8Y-94.45
X73.9Y-98.95
X74.208Y-91.808
X74.95Y-100.175
X75.175Y-87.775
X76.875Y-97.65
X79.72Y-109.61
X80.85Y-97.65
X82.0Y-57.7
X83.575Y-80.425
X84.612Y-87.6
X88.15Y-87.075
X88.4Y-90.5
X91.34Y-84.09
X91.605Y-77.605
X93.85Y-89.225
X95.025Y-49.975
X95.6Y-89.21
X96.5Y-77.5
X96.5Y-79.85
X97.54Y-89.14
X99.35Y-85.425
X104.912Y-88.95
T2
X78.475Y-89.545
X78.475Y-91.445
T3
X45.5Y-79.325
X46.185Y-58.215
X46.185Y-60.755
X46.185Y-63.295
X46.185Y-65.835
X46.26Y-88.3
X46.26Y-90.84
X46.26Y-93.38
X46.26Y-95.92
X46.36Y-113.365
X47.53Y-105.19
X47.6Y-100.75
X48.0Y-84.325
X48.725Y-58.215
X48.725Y-60.755
X48.725Y-63.295
X48.725Y-65.835
X48.8Y-88.3
X48.8Y-90.84
X48.8Y-93.38
X48.8Y-95.92
X48.9Y-113.365
X50.5Y-79.325
X57.7Y-100.55
X73.205Y-51.435
X73.205Y-53.975
X75.745Y-51.435
X75.745Y-53.975
X78.04Y-105.05
X78.285Y-51.435
X78.285Y-53.975
X80.58Y-105.05
X80.825Y-51.435
X80.825Y-53.975
X83.12Y-105.05
X83.365Y-51.435
X83.365Y-53.975
X85.905Y-51.435
X85.905Y-53.975
X88.445Y-51.435
X88.445Y-53.975
X104.3Y-113.8
X106.84Y-113.8
X111.3Y-79.6
X112.635Y-113.14
X113.8Y-84.6
X114.75Y-59.0
X114.8Y-67.05
X115.0Y-52.1
X115.175Y-113.14
X116.3Y-79.6
T4
X56.05Y-107.675
X56.05Y-114.175
X60.55Y-107.675
X60.55Y-114.175
X65.45Y-107.7
X65.45Y-114.2
X69.95Y-107.7
X69.95Y-114.2
X77.75Y-41.2
X77.75Y-45.7
X84.25Y-41.2
X84.25Y-45.7
X92.275Y-94.345
X94.775Y-94.345
X97.275Y-94.345
X103.505Y-100.575
X103.505Y-103.075
X103.505Y-105.575
T5
X91.525Y-108.825
X91.525Y-113.325
X98.025Y-108.825
X98.025Y-113.325
T6
X88.45Y-98.075
X88.45Y-108.075
X101.1Y-98.075
X101.1Y-108.075
T7
X46.7Y-50.625
X46.7Y-73.625
X107.7Y-50.625
X107.7Y-73.625
T8
X45.825Y-41.975
X53.825Y-83.975
X80.825Y-113.975
X107.825Y-83.975
X115.825Y-41.975
M30
